<?xml version="1.0" encoding="UTF-8"?>
<svg width="12px" height="12px" viewBox="0 0 12 12" version="1.1" xmlns="http://www.w3.org/2000/svg" xmlns:xlink="http://www.w3.org/1999/xlink">
    <title>check</title>
    <g id="Page-1" stroke="none" stroke-width="1" fill="none" fill-rule="evenodd">
        <g id="Hangout-Chat" transform="translate(-338.000000, -397.000000)" fill-rule="nonzero">
            <g id="check" transform="translate(338.000000, 397.000000)">
                <path d="M0.220551838,3.71902496 C0.627733597,1.98313529 1.98313529,0.627733597 3.71902496,0.220551838 C4.97269528,-0.0735172794 6.27732191,-0.0735172794 7.53101098,0.220551838 C9.26688815,0.627733597 10.6222648,1.98313529 11.0294528,3.71903121 C11.3235157,4.97269528 11.3235157,6.27732191 11.0294528,7.53101098 C10.6222648,9.26688815 9.26688815,10.6222648 7.53101098,11.0294528 C6.27732191,11.3235157 4.97269528,11.3235157 3.71903121,11.0294528 C1.98313529,10.6222648 0.627733597,9.26688815 0.220551838,7.53101098 C-0.0735172794,6.27732191 -0.0735172794,4.97269528 0.220551838,3.71902496 Z" id="Path"></path>
                <g id="Group" fill="#2662FF">
                    <path d="M7.77127096,1.12803698 C6.60622316,0.85475659 5.39379068,0.85475659 4.22874904,1.12803698 C2.69022379,1.48892364 1.48892364,2.69021764 1.12803698,4.22874904 C0.85475659,5.39379068 0.85475659,6.60622316 1.12803698,7.77127096 C1.48892364,9.30979621 2.69022379,10.5110902 4.22874904,10.8719523 C5.39379068,11.1452449 6.60622316,11.1452449 7.77127096,10.8719523 C9.30979621,10.5110902 10.5110902,9.30979621 10.8719523,7.77127096 C11.1452449,6.60622316 11.1452449,5.39379068 10.8719523,4.22874904 C10.5110902,2.69022379 9.30979621,1.48892364 7.77127096,1.12803698 Z M4.01794874,0.229352631 C5.32160597,-0.076450877 6.67840788,-0.076450877 7.98204049,0.229352631 C9.86192006,0.670300945 11.3297375,2.13809994 11.7706612,4.01794874 C12.0764463,5.32160597 12.0764463,6.67840788 11.7706612,7.98204049 C11.3297375,9.86192006 9.86192006,11.3297375 7.98204049,11.7706612 C6.67840788,12.0764463 5.32160597,12.0764463 4.01794874,11.7706612 C2.13809994,11.3297375 0.670300945,9.86192006 0.229352631,7.98210203 C-0.076450877,6.67840788 -0.076450877,5.32160597 0.229352631,4.01794259 C0.670300945,2.13809994 2.13809994,0.670300945 4.01794874,0.229352631 Z" id="Shape"></path>
                    <path d="M8.00720975,4.43182625 C8.19361002,4.60575265 8.2036408,4.89778998 8.02973286,5.08412871 L5.87588367,7.39182427 C5.79046817,7.48333209 5.67157569,7.53625524 5.54640628,7.53840909 C5.42129841,7.54056294 5.30062132,7.49182441 5.21212889,7.40327044 L3.98133946,6.17249947 C3.80109921,5.99225307 3.80109921,5.70006804 3.98133946,5.51982163 C4.16157972,5.33957522 4.45381397,5.33957522 4.63405423,5.51982163 L5.52702164,6.41274597 L7.35490114,4.45431859 C7.52880908,4.26797371 7.82087103,4.257906 8.00720975,4.43182625 L8.00720975,4.43182625 Z" id="Path"></path>
                </g>
            </g>
        </g>
    </g>
</svg>