<?xml version="1.0" encoding="UTF-8"?>
<svg width="31px" height="29px" viewBox="0 0 31 29" version="1.1" xmlns="http://www.w3.org/2000/svg" xmlns:xlink="http://www.w3.org/1999/xlink">
    <title>sms</title>
    <defs>
        <linearGradient x1="75.12469%" y1="71.4034376%" x2="10.1485796%" y2="16.0391727%" id="linearGradient-1">
            <stop stop-color="#EB595A" offset="0%"></stop>
            <stop stop-color="#F18875" offset="100%"></stop>
        </linearGradient>
        <linearGradient x1="85.3842772%" y1="85.3527955%" x2="14.6472045%" y2="14.6157228%" id="linearGradient-2">
            <stop stop-color="#629AD3" offset="0%"></stop>
            <stop stop-color="#79AED4" offset="100%"></stop>
        </linearGradient>
    </defs>
    <g id="Page-1" stroke="none" stroke-width="1" fill="none" fill-rule="evenodd">
        <g id="Your-Own-Profile" transform="translate(-30.000000, -367.000000)" fill-rule="nonzero">
            <g id="sms" transform="translate(30.000000, 367.000000)">
                <path d="M21.8863296,29 C18.8298567,28.9974469 16.0285608,27.2846775 14.6187815,24.5564723 C14.0520905,25.0012864 13.3539574,25.242956 12.6351776,25.2431274 L8.18939434,25.2431274 C3.06105256,25.2431274 0,22.1637027 0,16.9993192 L0,8.23591562 C0,3.07810934 3.06105256,0 8.18808676,0 L20.6415103,0 C25.7685445,0 28.8295971,3.07810934 28.8295971,8.23591562 L28.8295971,12.1664245 C28.8288479,13.1996317 28.3333305,14.1691926 27.4984772,14.7709785 C29.942443,17.0847745 30.7345704,20.6650782 29.4968289,23.8032441 C28.2590874,26.9414099 25.2423583,29.001354 21.8863296,29 L21.8863296,29 Z" id="Path" fill="#FFFFFF"></path>
                <path d="M20.5426598,2.14814815 L7.92162733,2.14814815 C4.13558264,2.14814815 1.61111111,4.04406879 1.61111111,8.46611462 L1.61111111,17.311533 C1.61111111,21.7335789 4.12895673,23.6295657 7.92162733,23.6295657 L12.4272458,23.6295657 C12.7864075,23.6331978 13.1297566,23.4818282 13.3695308,23.2140819 C13.6093049,22.9463355 13.7222668,22.5881605 13.6795427,22.2311088 C13.2656712,19.2913028 14.4714261,16.3571564 16.831854,14.5601115 C19.1922818,12.7630665 22.3386014,12.383884 25.0575545,13.5687814 C25.447459,13.7498559 25.9025808,13.7199623 26.2655143,13.4894394 C26.6284477,13.2589166 26.8493612,12.8594159 26.8518513,12.4291062 L26.8518513,8.46611462 C26.853176,4.04406879 24.3287045,2.14814815 20.5426598,2.14814815 L20.5426598,2.14814815 Z M21.1336909,9.20643913 L17.1886244,12.3654224 C15.4410251,13.6940835 13.023262,13.6940835 11.2756627,12.3654224 L7.3305962,9.21174612 C7.06197446,9.00184976 6.92682914,8.66355707 6.9767839,8.32609118 C7.02673865,7.98862529 7.25407656,7.70411741 7.57195765,7.58124565 C7.88983875,7.45837388 8.24915726,7.51611926 8.51265846,7.73242385 L12.457725,10.8914071 C13.5149549,11.6620877 14.9480071,11.6620877 16.0052369,10.8914071 L19.9516286,7.72711687 C20.3611142,7.40031402 20.9576816,7.46773355 21.284099,7.87770259 C21.6105165,8.28767164 21.5431765,8.88494326 21.1336909,9.21174612 L21.1336909,9.20643913 Z" id="Shape" fill="url(#linearGradient-1)"></path>
                <path d="M21.7499978,15.0370392 C18.3391293,15.0370392 15.5740741,17.8020966 15.5740741,21.2129651 C15.5740741,24.6238336 18.3391293,27.3888889 21.7499978,27.3888889 C25.1608663,27.3888889 27.9259237,24.6238336 27.9259237,21.2129651 C27.9272995,19.5745863 27.2770662,18.0029152 26.118557,16.844406 C24.9600478,15.6858968 23.3883767,15.0356635 21.7499978,15.0370392 L21.7499978,15.0370392 Z M24.278988,20.6565873 L23.8211759,21.1053209 L21.1352587,23.8003167 C20.9839579,23.9313551 20.8011498,24.0207478 20.6048192,24.0597003 L19.3973885,24.2360811 C19.2084124,24.2778416 19.0111912,24.2202842 18.8743411,24.0834341 C18.737491,23.946584 18.6799337,23.7493629 18.7216942,23.5603868 L18.898075,22.3529561 C18.9300691,22.1539661 19.0203326,21.9689258 19.1574586,21.8212197 L21.8524543,19.1365994 L22.2998911,18.6787873 C22.5478823,18.3898129 22.8995994,18.2099946 23.2790642,18.1781769 C23.6661493,18.2023656 24.0267026,18.3831105 24.2776911,18.6787873 C24.5967074,18.9070305 24.7860924,19.2750962 24.7863499,19.6673542 C24.7866068,20.0596121 24.5977047,20.4279259 24.278988,20.6565873 L24.278988,20.6565873 Z" id="Shape" fill="url(#linearGradient-2)"></path>
            </g>
        </g>
    </g>
</svg>