<?xml version="1.0" encoding="UTF-8"?>
<svg width="30px" height="30px" viewBox="0 0 30 30" version="1.1" xmlns="http://www.w3.org/2000/svg" xmlns:xlink="http://www.w3.org/1999/xlink">
    <title>notification-5</title>
    <defs>
        <linearGradient x1="82.9052632%" y1="63.4214346%" x2="17.1578947%" y2="29.7621305%" id="linearGradient-1">
            <stop stop-color="#629AD3" offset="0%"></stop>
            <stop stop-color="#79AED4" offset="100%"></stop>
        </linearGradient>
        <linearGradient x1="81.9650003%" y1="67.1703971%" x2="21.7200014%" y2="29.9405762%" id="linearGradient-2">
            <stop stop-color="#EB595A" offset="0%"></stop>
            <stop stop-color="#F18875" offset="100%"></stop>
        </linearGradient>
    </defs>
    <g id="Page-1" stroke="none" stroke-width="1" fill="none" fill-rule="evenodd">
        <g id="Your-Own-Profile" transform="translate(-30.000000, -235.000000)" fill-rule="nonzero">
            <g id="notification-5" transform="translate(30.000000, 235.000000)">
                <path d="M9.1601159,30 C3.59601021,30 0,26.4069087 0,20.8471963 L0,10.4771465 C0.00574613937,5.42673377 4.0988373,1.33399823 9.14968891,1.32825259 L17.0742058,1.32825259 C17.9702316,1.32637732 18.8272292,1.69470806 19.4424372,2.34609962 C20.8194096,0.510296045 23.1406844,-0.353828842 25.3830445,0.13463093 C27.6254046,0.623090702 29.3768552,2.37438911 29.8653574,4.61655439 C30.3538596,6.85871967 29.4896596,9.17979279 27.6536965,10.5566455 C28.3067672,11.1719705 28.6761576,12.0300328 28.6742387,12.9272777 L28.6742387,21.659128 L28.6742387,21.7334139 C28.2754062,26.9099676 24.8618684,30 19.5414937,30 L9.1601159,30 Z" id="Path" fill="#FFFFFF"></path>
                <path d="M25.4719656,15.9183673 L21.2068743,15.9183673 C20.0188168,15.9149913 18.9319509,16.6025946 18.4034372,17.6919681 L17.3722879,19.7717116 C17.1333684,20.2696639 16.6381219,20.5846441 16.0962406,20.5832866 L12.0863588,20.5832866 C11.5349221,20.6157652 11.0230766,20.2898277 10.8077336,19.7690723 L9.78431794,17.695927 C9.25601048,16.6045973 8.16798125,15.9153554 6.9783029,15.9183673 L2.69129968,15.9183673 C2.21933647,15.9183673 1.83673469,16.3100937 1.83673469,16.7932973 L1.83673469,20.8749258 C1.83673469,25.4382207 4.5009667,28.1632653 8.96197637,28.1632653 L19.2232009,28.1632653 C23.4238453,28.1632653 26.0120301,25.8037594 26.3265306,21.6205191 L26.3265306,16.7932973 C26.3265306,16.3100937 25.9439288,15.9183673 25.4719656,15.9183673 L25.4719656,15.9183673 Z" id="Path" fill="url(#linearGradient-1)"></path>
                <path d="M28.1632653,5.72324227 C28.1632653,7.86970114 26.395247,9.60974986 24.2142859,9.60974986 C22.0333247,9.60974986 20.2653064,7.86970114 20.2653064,5.72324227 C20.2653064,3.57678341 22.0333247,1.83673469 24.2142859,1.83673469 C26.395247,1.83673469 28.1632653,3.57678341 28.1632653,5.72324227 Z M25.267347,11.4493634 C24.117292,11.6664408 22.9272453,11.5307782 21.8580615,11.0607127 C20.484265,10.4730119 19.3881682,9.39425514 18.7910207,8.0421918 C18.3133994,6.98992222 18.1755561,5.81870167 18.3961228,4.68684025 C18.4751874,4.30563222 18.375984,3.90963589 18.1259287,3.60828959 C17.8758734,3.30694328 17.5014456,3.13223675 17.1061229,3.13223675 L9.10285783,3.13223675 C7.17554831,3.13154959 5.32697573,3.88475387 3.964162,5.22600822 C2.60134828,6.56726257 1.83603697,8.3865912 1.83673517,10.2834112 L1.83673517,13.9237733 C2.11659326,13.8303518 2.40999507,13.7822251 2.70551113,13.781268 L7.08887832,13.781268 C9.05428184,13.7758045 10.8516289,14.8713248 11.7223475,16.6054635 L12.6174495,18.3673469 L16.0793882,18.3673469 L17.0008167,16.5925085 C17.8663892,14.8615594 19.6609295,13.7696653 21.6211227,13.781268 L25.9781633,13.781268 C26.2736794,13.7822251 26.5670812,13.8303518 26.8469389,13.9237733 L26.8469389,12.7189559 C26.8469389,12.3298871 26.6694245,11.9613827 26.3632344,11.7152832 C26.0570442,11.4691837 25.6546826,11.3715497 25.267347,11.4493634 L25.267347,11.4493634 Z" id="Shape" fill="url(#linearGradient-2)"></path>
            </g>
        </g>
    </g>
</svg>