<?xml version="1.0" encoding="UTF-8"?>
<svg width="27px" height="34px" viewBox="0 0 27 34" version="1.1" xmlns="http://www.w3.org/2000/svg" xmlns:xlink="http://www.w3.org/1999/xlink">
    <title>award</title>
    <defs>
        <linearGradient x1="80.1026757%" y1="62.914032%" x2="19.8586066%" y2="42.3926535%" id="linearGradient-1">
            <stop stop-color="#629AD3" offset="0%"></stop>
            <stop stop-color="#79AED4" offset="100%"></stop>
        </linearGradient>
        <linearGradient x1="82.0430658%" y1="84.7383192%" x2="17.9569342%" y2="15.2520054%" id="linearGradient-2">
            <stop stop-color="#EB595A" offset="0%"></stop>
            <stop stop-color="#F18875" offset="100%"></stop>
        </linearGradient>
    </defs>
    <g id="Page-1" stroke="none" stroke-width="1" fill="none" fill-rule="evenodd">
        <g id="Your-Own-Profile" transform="translate(-30.000000, -320.000000)" fill-rule="nonzero">
            <g id="award" transform="translate(30.000000, 320.000000)">
                <path d="M27,15.9660838 L27,22.6477779 C27,26.2050451 26.4454054,27.2051572 23.2944324,29.3442448 L16.8158919,33.1452615 C15.8041767,33.720509 14.6603009,34.015064 13.5,33.9991239 C12.3330251,34.0183288 11.1821835,33.721497 10.1665946,33.1393525 L3.82232432,29.4314037 L3.76102703,29.3900401 C0.561891892,27.2036799 0,26.2020906 0,22.6477779 L0,15.9660838 C0,12.7677934 0.448054054,11.6362042 2.83135135,9.88563876 L2.83135135,7.39939264 C2.66734244,5.4001483 3.37948236,3.42893712 4.77895549,2.00840281 C6.17842863,0.587868495 8.12386671,-0.138493171 10.0994595,0.021904157 L16.9005405,0.021904157 C18.8753078,-0.138317181 20.8199437,0.587469616 22.2192474,2.00697872 C23.6185511,3.42648783 24.331295,5.39645226 24.1686486,7.39496083 L24.1686486,9.88563876 C26.5504865,11.6465451 27,12.7884751 27,15.9660838 L27,15.9660838 Z" id="Path" fill="#FFFFFF"></path>
                <path d="M10.1919441,5.1019078 L5.03257588,8 L5.03257588,6.94486934 C4.86578385,5.60180464 5.3454569,4.25898029 6.33436257,3.30057271 C7.32326825,2.34216514 8.7124605,1.87376047 10.1044972,2.02936733 L16.896208,2.02936733 C18.2871085,1.87409833 19.6751384,2.34179707 20.6637872,3.29885878 C21.652436,4.25592049 22.1329742,5.59708953 21.9681294,6.93924198 L21.9681294,7.98030423 L16.8087611,5.09628043 C14.7449274,4.01473173 12.2538003,4.01685035 10.1919441,5.1019078 Z" id="Path" fill="url(#linearGradient-1)"></path>
                <path d="M22.1613548,11.2437383 L21.9580645,11.1282831 L19.9340645,9.96780953 L15.7569677,7.5550903 C14.3437896,6.8149699 12.6562104,6.8149699 11.2430323,7.5550903 L7.06593548,9.96632933 L5.04193548,11.1416048 L4.78077419,11.2896244 C2.17509677,13.0288545 2,13.3485768 2,16.1520678 L2,22.8455134 C2,25.6475241 2.17509677,25.9672464 4.83864516,27.7538428 L11.2430323,31.4424909 C11.9330678,31.8231016 12.7116632,32.0150981 13.5,31.9990445 C14.2876162,32.0152363 15.0657513,31.8253945 15.7569677,31.4484116 L22.2192258,27.7064765 C24.8249032,25.964286 25,25.6445637 25,22.842553 L25,16.1520678 C25,13.3485768 24.8249032,13.0288545 22.1613548,11.2437383 L22.1613548,11.2437383 Z M17.6340645,19.4173798 L16.731871,20.5201257 C16.5757216,20.7186458 16.4933915,20.9650243 16.4989032,21.217298 L16.5864516,22.6412464 C16.6624971,23.0016028 16.5191774,23.3728954 16.220493,23.5893209 C15.9218085,23.8057464 15.5235192,23.8269014 15.2034839,23.6433389 L13.8783871,23.1178694 C13.6315812,23.0438814 13.3684188,23.0438814 13.1216129,23.1178694 L11.7965161,23.6403786 C11.4764808,23.823941 11.0781915,23.802786 10.779507,23.5863605 C10.4808226,23.369935 10.3375029,22.9986424 10.4135484,22.638286 L10.5010968,21.2143376 C10.5066085,20.9620639 10.4242784,20.7156854 10.268129,20.5171653 L9.36593548,19.4173798 C9.08926751,19.1712061 8.98395429,18.7855531 9.09723784,18.4334192 C9.21052138,18.0812853 9.52113503,17.8287764 9.88974194,17.7891644 L11.2727097,17.4413184 C11.5141508,17.3624772 11.7227791,17.2063935 11.8662581,16.9972596 L12.637871,15.8131029 C12.7891439,15.4748426 13.1257205,15.2569822 13.4970323,15.2569822 C13.868344,15.2569822 14.2049206,15.4748426 14.3561935,15.8131029 L15.1278065,16.9972596 C15.2712854,17.2063935 15.4799137,17.3624772 15.7213548,17.4413184 L17.1043226,17.7891644 C17.4739623,17.8267644 17.7864921,18.0785078 17.9011898,18.4310428 C18.0158875,18.7835777 17.9111215,19.1704171 17.6340645,19.4173798 L17.6340645,19.4173798 Z" id="Shape" fill="url(#linearGradient-2)"></path>
            </g>
        </g>
    </g>
</svg>