<svg width="21" height="21" viewBox="0 0 21 21" fill="none" xmlns="http://www.w3.org/2000/svg">
<path fill-rule="evenodd" clip-rule="evenodd" d="M9.5 15.25C9.5 18.4205 12.0795 21 15.25 21C18.4205 21 21 18.4205 21 15.25C21 12.0795 18.4205 9.5 15.25 9.5C12.0795 9.5 9.5 12.0795 9.5 15.25ZM10.8269 15.25C10.8269 12.8111 12.8111 10.8269 15.25 10.8269C17.6889 10.8269 19.6731 12.8111 19.6731 15.25C19.6731 17.6889 17.6889 19.6731 15.25 19.6731C12.8111 19.6731 10.8269 17.6889 10.8269 15.25Z" fill="#3A9EEE"/>
<path d="M15.25 18.5C14.836 18.5 14.5 18.212 14.5 17.8571V13.1429C14.5 12.788 14.836 12.5 15.25 12.5C15.664 12.5 16 12.788 16 13.1429V17.8571C16 18.212 15.664 18.5 15.25 18.5Z" fill="#3A9EEE"/>
<path d="M17.8571 16H13.1429C12.788 16 12.5 15.664 12.5 15.25C12.5 14.836 12.788 14.5 13.1429 14.5H17.8571C18.212 14.5 18.5 14.836 18.5 15.25C18.5 15.664 18.212 16 17.8571 16Z" fill="#3A9EEE"/>
<path d="M8.10882 18.5H2.42647C1.08794 18.5 0 17.4138 0 16.0774V2.42262C0 1.08621 1.08794 0 2.42647 0H12.5735C13.9121 0 15 1.08621 15 2.42262V7.78762C15 8.15233 14.7035 8.44833 14.3382 8.44833C13.9729 8.44833 13.6765 8.15233 13.6765 7.78762V2.42262C13.6765 1.81564 13.1815 1.32143 12.5735 1.32143H2.42647C1.81853 1.32143 1.32353 1.81564 1.32353 2.42262V16.0774C1.32353 16.6844 1.81853 17.1786 2.42647 17.1786H8.10882C8.47412 17.1786 8.77059 17.4746 8.77059 17.8393C8.77059 18.204 8.47412 18.5 8.10882 18.5Z" fill="#3A9EEE"/>
<path d="M11.3523 8.5H3.14773C2.79018 8.5 2.5 8.164 2.5 7.75C2.5 7.336 2.79018 7 3.14773 7H11.3523C11.7098 7 12 7.336 12 7.75C12 8.164 11.7098 8.5 11.3523 8.5Z" fill="#3A9EEE"/>
<path d="M7.85714 12H3.14286C2.788 12 2.5 11.664 2.5 11.25C2.5 10.836 2.788 10.5 3.14286 10.5H7.85714C8.212 10.5 8.5 10.836 8.5 11.25C8.5 11.664 8.212 12 7.85714 12Z" fill="#3A9EEE"/>
<path d="M7.3125 5H3.1875C2.808 5 2.5 4.664 2.5 4.25C2.5 3.836 2.808 3.5 3.1875 3.5H7.3125C7.692 3.5 8 3.836 8 4.25C8 4.664 7.692 5 7.3125 5Z" fill="#3A9EEE"/>
</svg>
