<svg width="18" height="18" viewBox="0 0 18 18" fill="none" xmlns="http://www.w3.org/2000/svg">
<path fill-rule="evenodd" clip-rule="evenodd" d="M12.2141 4.17857C12.2141 6.48633 10.3433 8.35714 8.0355 8.35714C5.72883 8.35451 3.85957 6.48524 3.85693 4.17857C3.85693 1.87081 5.72774 0 8.0355 0C10.3433 0 12.2141 1.87081 12.2141 4.17857ZM11.0202 4.17857C11.0202 2.53017 9.68391 1.19388 8.0355 1.19388C6.38792 1.19585 5.05278 2.53099 5.05081 4.17857C5.05081 5.82697 6.3871 7.16327 8.0355 7.16327C9.68391 7.16327 11.0202 5.82697 11.0202 4.17857Z" fill="white"/>
<path fill-rule="evenodd" clip-rule="evenodd" d="M0 17.4031C0.00490511 13.1193 3.45584 9.64782 7.71429 9.64288C11.9727 9.64782 15.4237 13.1193 15.4286 17.4031C15.4286 17.7328 15.1629 18 14.8352 18H0.593407C0.436025 18 0.28509 17.9371 0.173805 17.8252C0.0625194 17.7132 0 17.5614 0 17.4031ZM7.71429 10.8332C4.33782 10.8332 1.51862 13.4235 1.21352 16.8061H14.2151C13.91 13.4235 11.0908 10.8332 7.71429 10.8332Z" fill="white"/>
<path d="M17.4215 8.09999H15.6858V6.36428C15.6858 6.04474 15.4267 5.78571 15.1072 5.78571C14.7877 5.78571 14.5286 6.04474 14.5286 6.36428V8.09999H12.7929C12.4734 8.09999 12.2144 8.35903 12.2144 8.67856C12.2144 8.9981 12.4734 9.25713 12.7929 9.25713H14.5286V10.9928C14.5286 11.3124 14.7877 11.5714 15.1072 11.5714C15.4267 11.5714 15.6858 11.3124 15.6858 10.9928V9.25713H17.4215C17.741 9.25713 18.0001 8.9981 18.0001 8.67856C18.0001 8.35903 17.741 8.09999 17.4215 8.09999Z" fill="white"/>
</svg>
