<svg width="21" height="21" viewBox="0 0 21 21" fill="none" xmlns="http://www.w3.org/2000/svg">
<path fill-rule="evenodd" clip-rule="evenodd" d="M3.88275 0H17.1173C19.2608 0.00206725 20.9979 1.73922 21 3.88275V17.1173C20.9979 19.2608 19.2608 20.9979 17.1173 21H3.88275C1.73922 20.9979 0.00206725 19.2608 0 17.1173V3.88275C0.00206725 1.73922 1.73922 0.00206725 3.88275 0ZM17.1173 19.5C18.4327 19.4988 19.4988 18.4327 19.5 17.1173V3.88275C19.4988 2.56731 18.4327 1.50124 17.1173 1.5H3.88275C2.56731 1.50124 1.50124 2.56731 1.5 3.88275V17.1173C1.50124 18.4327 2.56731 19.4988 3.88275 19.5H17.1173Z" fill="#3A9EEE"/>
<path d="M16.25 10.25H11.75V5.75C11.75 5.33579 11.4142 5 11 5C10.5858 5 10.25 5.33579 10.25 5.75V10.25H5.75C5.33579 10.25 5 10.5858 5 11C5 11.4142 5.33579 11.75 5.75 11.75H10.25V16.25C10.25 16.6642 10.5858 17 11 17C11.4142 17 11.75 16.6642 11.75 16.25V11.75H16.25C16.6642 11.75 17 11.4142 17 11C17 10.5858 16.6642 10.25 16.25 10.25Z" fill="#3A9EEE"/>
</svg>
