<?xml version="1.0" encoding="UTF-8"?>
<svg width="23px" height="23px" viewBox="0 0 23 23" version="1.1" xmlns="http://www.w3.org/2000/svg" xmlns:xlink="http://www.w3.org/1999/xlink">
    <title>add</title>
    <g id="Page-1" stroke="none" stroke-width="1" fill="none" fill-rule="evenodd">
        <g id="Hangout-Chat" transform="translate(-10.000000, -633.000000)" fill="#2662FF" fill-rule="nonzero">
            <g id="add" transform="translate(10.000000, 633.000000)">
                <path d="M15.1016509,10.7292467 L12.2707533,10.7292467 L12.2707533,7.89834907 C12.2324334,7.50335503 11.9004501,7.2020202 11.5036017,7.2020202 C11.1067532,7.2020202 10.7747699,7.50335503 10.73645,7.89834907 L10.73645,10.7148401 L7.89834907,10.7148401 C7.50335503,10.75316 7.2020202,11.0851433 7.2020202,11.4819917 C7.2020202,11.8788402 7.50335503,12.2108235 7.89834907,12.2491434 L10.7148401,12.2491434 L10.7148401,15.1016509 C10.75316,15.496645 11.0851433,15.7979798 11.4819917,15.7979798 C11.8788402,15.7979798 12.2108235,15.496645 12.2491434,15.1016509 L12.2491434,12.2707533 L15.1016509,12.2707533 C15.496645,12.2324334 15.7979798,11.9004501 15.7979798,11.5036017 C15.7979798,11.1067532 15.496645,10.7747699 15.1016509,10.73645 L15.1016509,10.7292467 Z" id="Path"></path>
                <path d="M16.1,23 L6.9,23 C3.0908774,22.9960384 0.00396164918,19.9091226 0,16.1 L0,6.9 C0.00396164918,3.0908774 3.0908774,0.00396164918 6.9,0 L16.1,0 C19.9091226,0.00396164918 22.9960384,3.0908774 23,6.9 L23,16.1 C22.9960384,19.9091226 19.9091226,22.9960384 16.1,23 Z M6.9,1.5309375 C3.93639025,1.5348969 1.5348969,3.93639025 1.5309375,6.9 L1.5309375,16.1 C1.5348969,19.0636098 3.93639025,21.4651031 6.9,21.4690625 L16.1,21.4690625 C19.0636098,21.4651031 21.4651031,19.0636098 21.4690625,16.1 L21.4690625,6.9 C21.4651031,3.93639025 19.0636098,1.5348969 16.1,1.5309375 L6.9,1.5309375 Z" id="Shape"></path>
            </g>
        </g>
    </g>
</svg>