<svg width="414" height="62" viewBox="0 0 414 62" fill="none" xmlns="http://www.w3.org/2000/svg">
<rect width="414" height="62" fill="white"/>
<path fill-rule="evenodd" clip-rule="evenodd" d="M351 31C351 33.4813 353.019 35.5 355.5 35.5C357.981 35.5 360 33.4813 360 31C360 28.5187 357.981 26.5 355.5 26.5C353.019 26.5 351 28.5187 351 31ZM352.5 31C352.5 29.3458 353.846 28 355.5 28C357.154 28 358.5 29.3458 358.5 31C358.5 32.6542 357.154 34 355.5 34C353.846 34 352.5 32.6542 352.5 31Z" fill="#8C8C8C"/>
<path fill-rule="evenodd" clip-rule="evenodd" d="M353.975 42H357.025C357.758 42 358.406 41.4793 358.564 40.7625L358.951 39.0447C359.58 38.7778 360.179 38.4296 360.742 38.0042L362.416 38.5331C363.132 38.755 363.911 38.4516 364.266 37.8173L365.795 35.1727C366.155 34.5302 366.032 33.7289 365.496 33.2248C365.493 33.223 365.491 33.2211 365.49 33.2193L364.201 32.0349C364.239 31.6857 364.258 31.3382 364.258 31C364.258 30.6618 364.239 30.3143 364.201 29.9651L365.496 28.7744C366.032 28.2701 366.154 27.469 365.79 26.8181L364.27 24.1901C363.911 23.5484 363.133 23.246 362.415 23.4669L360.743 23.9948C360.18 23.5694 359.581 23.2211 358.952 22.9544L358.566 21.2384C358.406 20.5207 357.758 20 357.025 20H353.975C353.242 20 352.593 20.5207 352.435 21.2357L352.048 22.9534C351.419 23.2203 350.819 23.5686 350.256 23.9939L348.582 23.465C347.87 23.246 347.089 23.5474 346.734 24.1819L345.205 26.8265C344.844 27.469 344.968 28.2701 345.51 28.7799L346.798 29.9651C346.76 30.3143 346.74 30.6608 346.74 31C346.74 31.3392 346.76 31.6857 346.799 32.0349L345.504 33.2256C344.968 33.7299 344.845 34.531 345.209 35.1819L346.729 37.8099C347.089 38.4516 347.868 38.7559 348.585 38.5331L350.256 38.0052C350.819 38.4306 351.419 38.7789 352.048 39.0456L352.434 40.7616C352.593 41.4793 353.242 42 353.975 42ZM350.834 36.7108C350.709 36.6081 350.554 36.554 350.397 36.554C350.327 36.554 350.257 36.5641 350.19 36.5861L348.174 37.2224C348.078 37.2516 347.973 37.2177 347.925 37.1306L346.405 34.5026C346.354 34.4118 346.371 34.2982 346.441 34.2331L347.992 32.8067C348.16 32.6518 348.24 32.4245 348.206 32.1989C348.146 31.7929 348.116 31.3896 348.116 31C348.116 30.6104 348.146 30.2071 348.206 29.8011C348.24 29.5755 348.16 29.3472 347.992 29.1933L346.446 27.7733C346.37 27.7018 346.353 27.5882 346.399 27.5056L347.929 24.862C347.973 24.7831 348.077 24.7484 348.172 24.7776L350.19 25.4147C350.41 25.4844 350.653 25.4377 350.834 25.2892C351.463 24.7712 352.151 24.3716 352.877 24.1039C353.096 24.0223 353.258 23.8371 353.309 23.6099L353.777 21.5363C353.797 21.4428 353.881 21.375 353.975 21.375H357.025C357.119 21.375 357.202 21.4428 357.225 21.5363L357.692 23.608C357.743 23.8353 357.906 24.0214 358.125 24.102C358.852 24.3697 359.539 24.7694 360.168 25.2873C360.349 25.4359 360.591 25.4836 360.813 25.4129L362.828 24.7767C362.923 24.7465 363.028 24.7813 363.077 24.8684L364.598 27.4965C364.648 27.5872 364.631 27.701 364.562 27.7659L363.011 29.1923C362.843 29.3472 362.762 29.5746 362.796 29.8001C362.856 30.2061 362.887 30.6094 362.887 30.9992C362.887 31.3887 362.856 31.7921 362.796 32.1981C362.762 32.4235 362.843 32.6518 363.011 32.8059L364.558 34.2285C364.631 34.3 364.648 34.4118 364.602 34.4934L363.073 37.138C363.029 37.2169 362.926 37.2526 362.83 37.2224L360.812 36.5853C360.589 36.5146 360.347 36.5623 360.167 36.7108C359.538 37.2288 358.85 37.6284 358.124 37.8961C357.905 37.9767 357.742 38.1629 357.691 38.3901L357.224 40.4637C357.203 40.5572 357.12 40.625 357.025 40.625H353.976C353.882 40.625 353.798 40.5572 353.777 40.4619L353.31 38.3901C353.259 38.1629 353.097 37.9767 352.878 37.8961C352.151 37.6284 351.464 37.2288 350.834 36.7108Z" fill="#8C8C8C"/>
<path fill-rule="evenodd" clip-rule="evenodd" d="M59 20C52.9349 20 48 24.9349 48 31V41.3125C48 41.692 48.308 42 48.6875 42H59C65.0651 42 70 37.0651 70 31C70 24.9349 65.0651 20 59 20ZM59.6875 33.75H54.1875C53.808 33.75 53.5 33.442 53.5 33.0625C53.5 32.683 53.808 32.375 54.1875 32.375H59.6875C60.067 32.375 60.375 32.683 60.375 33.0625C60.375 33.442 60.067 33.75 59.6875 33.75ZM54.1875 29.625H63.8125C64.192 29.625 64.5 29.317 64.5 28.9375C64.5 28.558 64.192 28.25 63.8125 28.25H54.1875C53.808 28.25 53.5 28.558 53.5 28.9375C53.5 29.317 53.808 29.625 54.1875 29.625Z" fill="black"/>
<path fill-rule="evenodd" clip-rule="evenodd" d="M163.316 33.8565C164.577 34.2734 165.906 34.4853 167.263 34.4853C168.221 34.4853 169 35.2645 169 36.2221V40.2632C169 41.2208 168.221 42 167.263 42C156.091 42 147 32.9094 147 21.7368C147 20.7792 147.779 20 148.737 20H152.789C153.747 20 154.526 20.7792 154.526 21.7368C154.526 23.0916 154.739 24.422 155.157 25.6888C155.355 26.3221 155.19 26.9972 154.728 27.4603L152.893 29.8989C154.402 32.745 156.237 34.5779 159.101 36.1063L161.599 34.2201C162.004 33.8079 162.701 33.6446 163.316 33.8565ZM167.263 40.8421C167.582 40.8421 167.842 40.5827 167.842 40.2632H167.842V36.2221C167.842 35.9025 167.582 35.6432 167.263 35.6432C165.783 35.6432 164.331 35.4116 162.947 34.9542C162.74 34.8859 162.512 34.9392 162.357 35.092L159.506 37.2527C159.329 37.3869 159.09 37.4078 158.894 37.3059C155.497 35.5656 153.411 33.479 151.694 30.1061C151.593 29.9092 151.614 29.6719 151.747 29.4947L153.855 26.7042C154.067 26.4842 154.121 26.2607 154.054 26.0442C153.6 24.6675 153.368 23.2155 153.368 21.7368C153.368 21.4173 153.108 21.1579 152.789 21.1579H148.737C148.418 21.1579 148.158 21.4173 148.158 21.7368C148.158 32.2714 156.729 40.8421 167.263 40.8421Z" fill="#8C8C8C"/>
<path d="M260.361 20C259.735 20 259.117 20.0784 258.522 20.2324C258.15 20.329 257.926 20.7098 258.022 21.0836C258.118 21.4588 258.499 21.6856 258.867 21.5876C259.349 21.463 259.851 21.4 260.361 21.4C263.807 21.4 266.611 24.3078 266.611 27.882C266.611 31.9812 261.917 37.5434 260.358 39.2752C260.186 39.0834 259.975 38.8426 259.739 38.5612C259.492 38.2658 259.053 38.228 258.76 38.4786C258.467 38.7278 258.431 39.1702 258.678 39.4656C259.382 40.3056 259.869 40.797 259.869 40.797C260 40.9258 260.176 41 260.361 41C260.362 41 260.364 41 260.365 41C260.55 40.9986 260.728 40.923 260.857 40.7886C261.15 40.4876 268 33.3406 268 27.882C268 23.535 264.574 20 260.361 20Z" fill="black"/>
<path fill-rule="evenodd" clip-rule="evenodd" d="M246 28.8862C246 24.5378 249.364 21 253.5 21C257.636 21 261 24.5378 261 28.8862C261 34.335 254.275 41.4862 253.988 41.7886C253.86 41.923 253.684 42 253.5 42C253.316 42 253.14 41.923 253.012 41.7872C252.725 41.4862 246 34.335 246 28.8862ZM247.364 28.8862C247.364 32.9756 251.967 38.535 253.5 40.2724C255.033 38.535 259.636 32.9756 259.636 28.8862C259.636 25.3106 256.883 22.4 253.5 22.4C250.117 22.4 247.364 25.3106 247.364 28.8862Z" fill="black"/>
<path fill-rule="evenodd" clip-rule="evenodd" d="M250 28.5C250 26.5708 251.571 25 253.5 25C255.429 25 257 26.5708 257 28.5C257 30.4292 255.429 32 253.5 32C251.571 32 250 30.4292 250 28.5ZM251.4 28.5C251.4 29.6578 252.342 30.6 253.5 30.6C254.658 30.6 255.6 29.6578 255.6 28.5C255.6 27.3422 254.658 26.4 253.5 26.4C252.342 26.4 251.4 27.3422 251.4 28.5Z" fill="black"/>
</svg>
