<svg width="22" height="22" viewBox="0 0 22 22" fill="none" xmlns="http://www.w3.org/2000/svg">
<path fill-rule="evenodd" clip-rule="evenodd" d="M16.3159 13.8565C17.5769 14.2734 18.9061 14.4853 20.2632 14.4853C21.2208 14.4853 22 15.2645 22 16.2221V20.2632C22 21.2208 21.2208 22 20.2632 22C9.09064 22 0 12.9094 0 1.73684C0 0.779246 0.779246 0 1.73684 0H5.7895C6.74709 0 7.52634 0.779246 7.52634 1.73684C7.52634 3.09158 7.73938 4.422 8.15741 5.68876C8.35541 6.32211 8.18981 6.9972 7.72781 7.46034L5.89257 9.89887C7.40243 12.745 9.23653 14.5779 12.1012 16.1063L14.5988 14.2201C15.004 13.8079 15.7011 13.6446 16.3159 13.8565ZM20.2632 20.8421C20.5816 20.8421 20.8421 20.5827 20.8421 20.2632H20.8422V16.2221C20.8422 15.9025 20.5817 15.6432 20.2633 15.6432C18.7835 15.6432 17.3315 15.4116 15.9466 14.9542C15.7405 14.8859 15.5124 14.9392 15.3572 15.092L12.5065 17.2527C12.3293 17.3869 12.0896 17.4078 11.894 17.3059C8.49669 15.5656 6.41129 13.479 4.69415 10.1061C4.59341 9.90924 4.61425 9.67188 4.74739 9.49473L6.85478 6.70422C7.06667 6.48423 7.12106 6.26072 7.05392 6.04422C6.60006 4.6675 6.36846 3.21549 6.36846 1.73684C6.36846 1.41726 6.10794 1.15788 5.7895 1.15788H1.73684C1.4184 1.15788 1.15788 1.41726 1.15788 1.73684C1.15788 12.2714 9.7286 20.8421 20.2632 20.8421Z" fill="black"/>
</svg>
