<svg id="Capa_1" enable-background="new 0 0 512 512" height="512" viewBox="0 0 512 512" width="512" xmlns="http://www.w3.org/2000/svg"><g><path d="m431.753 154.033-2.312-.18-90.39 156.561c-2.822 4.888-8.037 7.899-13.681 7.899h-52.225v5.443c0 11.454-9.318 20.771-20.771 20.771s-20.771-9.318-20.771-20.771v-5.443h-52.224c-5.644 0-10.859-3.011-13.681-7.899l-90.39-156.561-2.315.182-36.593 21.127-1.075 1.776 107.841 186.786c1.849 3.202 2.822 6.834 2.822 10.532v127.594c0 5.606 4.545 10.151 10.151 10.151h192.471c5.606 0 10.151-4.545 10.151-10.151v-127.595c0-3.697.973-7.33 2.822-10.532l107.841-186.786-1.042-1.756z" fill="#01c0fa"/><g><g><g><g><path d="m171.596 501.849v-127.594c0-3.697-.973-7.33-2.822-10.532l-114.537-197.706-18.914 10.92 107.841 186.786c1.849 3.202 2.822 6.834 2.822 10.532v127.594c0 5.606 4.545 10.151 10.151 10.151h25.611c-5.607 0-10.152-4.545-10.152-10.151z" fill="#08a9f1"/></g></g><g><g><path d="m74.326 128.285-10.336 5.968-3.395-5.88c-6.375-11.041-20.493-14.824-31.534-8.449s-14.824 20.493-8.449 31.534l14.711 25.48 50.319-29.052c5.412-3.125 7.267-10.045 4.142-15.458s-10.045-7.267-15.458-4.143z" fill="#ffcebf"/></g><g><path d="m430.42 128.285 10.336 5.968 3.395-5.88c6.375-11.041 20.493-14.824 31.534-8.449s14.824 20.493 8.449 31.534l-14.711 25.48-50.319-29.052c-5.412-3.125-7.267-10.045-4.142-15.458s10.046-7.267 15.458-4.143z" fill="#ffcebf"/></g></g><g><path d="m178.238 211.236h8.787v-13.521c0-12.072 9.786-21.857 21.857-21.857h86.981c12.072 0 21.857 9.786 21.857 21.857v13.521h8.787c4.442 0 8.579 1.324 12.044 3.593v-44.338c0-29.083-23.576-52.659-52.659-52.659h-67.041c-29.083 0-52.659 23.576-52.659 52.659v44.338c3.468-2.269 7.604-3.593 12.046-3.593z" fill="#a44f3e"/></g><g><g><path d="m208.986 170.491c0-29.083 23.576-52.659 52.659-52.659h-42.792c-29.083 0-52.659 23.576-52.659 52.659v44.338c3.466-2.268 7.602-3.593 12.044-3.593h8.787v-13.521c0-12.071 9.786-21.857 21.857-21.857h.103v-5.367z" fill="#883f2e"/></g></g><g><path d="m271.424 299.295h-38.101c-.914 0-1.82-.034-2.721-.086v24.547c0 12.024 9.747 21.772 21.772 21.772 12.024 0 21.772-9.747 21.772-21.772v-24.547c-.902.052-1.808.086-2.722.086z" fill="#ffb09e"/></g><g><g><path d="m251.413 323.755v-24.46h-18.09c-.914 0-1.82-.034-2.721-.086v24.547c0 12.024 9.747 21.772 21.772 21.772 3.769 0 7.314-.959 10.405-2.645-6.771-3.692-11.366-10.873-11.366-19.128z" fill="#f89580"/></g></g><g><g><path d="m187.025 252.997v-42.636h-8.787c-12.664 0-22.93 10.266-22.93 22.93v3.126c0 12.664 10.266 22.93 22.93 22.93h9.234c-.287-2.077-.447-4.195-.447-6.35z" fill="#f89580"/></g><g><path d="m326.509 210.362h-8.787v42.636c0 2.155-.16 4.273-.446 6.35h9.234c12.664 0 22.93-10.266 22.93-22.93v-3.126c-.002-12.665-10.268-22.93-22.931-22.93z" fill="#ffb09e"/></g></g><g><path d="m271.423 300.169h-38.1c-26.052 0-47.172-21.12-47.172-47.172v-56.157c0-12.072 9.786-21.857 21.857-21.857h88.729c12.072 0 21.857 9.786 21.857 21.857v56.158c.001 26.052-21.118 47.171-47.171 47.171z" fill="#ffcebf"/></g><g><path d="m211.824 252.998v-56.158c0-12.071 9.786-21.857 21.857-21.857h-25.673c-12.072 0-21.857 9.786-21.857 21.857v56.158c0 26.052 21.12 47.172 47.172 47.172h25.673c-26.052-.001-47.172-21.12-47.172-47.172z" fill="#ffb09e"/></g><g><g><g><path d="m252.372 242.775c-1.8 0-3.605-.644-5.042-1.95l-10.886-9.893c-2.983-2.711-3.29-7.294-.695-10.378l10.886-12.94c2.666-3.17 7.397-3.577 10.567-.911 3.17 2.667 3.578 7.398.911 10.567l-6.239 7.416 5.544 5.039c3.065 2.786 3.292 7.529.507 10.595-1.481 1.628-3.513 2.455-5.553 2.455z" fill="#ec806b"/></g><g><g><path d="m221.589 229.014c-4.143 0-7.5-3.358-7.5-7.5v-14.514c0-4.142 3.357-7.5 7.5-7.5s7.5 3.358 7.5 7.5v14.514c0 4.142-3.357 7.5-7.5 7.5z" fill="#ec806b"/></g><g><path d="m283.157 229.014c-4.143 0-7.5-3.358-7.5-7.5v-14.514c0-4.142 3.357-7.5 7.5-7.5s7.5 3.358 7.5 7.5v14.514c0 4.142-3.358 7.5-7.5 7.5z" fill="#ec806b"/></g></g></g><g><path d="m231.687 253.93c-2.092 0-3.737 1.863-3.403 3.928 1.879 11.61 11.948 20.476 24.089 20.476s22.211-8.866 24.089-20.476c.334-2.065-1.311-3.928-3.403-3.928z" fill="#fe99a0"/></g><g><path d="m245.365 257.857c-.334-2.065 1.311-3.928 3.403-3.928h-17.081c-2.092 0-3.737 1.863-3.403 3.928 1.879 11.61 11.949 20.476 24.089 20.476 3.005 0 5.882-.547 8.541-1.54-8.082-3.02-14.135-10.199-15.549-18.936z" fill="#fd8087"/></g></g></g></g><g><g><path d="m390.283 394.129 20.151-20.151c1.329-1.329 3.484-1.329 4.813 0l36.232 36.232c1.329 1.329 1.329 3.484 0 4.813l-20.151 20.151c-1.329 1.329-3.484 1.329-4.813 0l-36.232-36.232c-1.329-1.328-1.329-3.483 0-4.813z" fill="#fe646f"/></g></g><path d="m410.997 398.943c-1.329-1.329-1.329-3.484 0-4.813l12.201-12.201-7.95-7.95c-1.329-1.329-3.484-1.329-4.813 0l-20.151 20.151c-1.329 1.329-1.329 3.484 0 4.813l36.232 36.232c1.329 1.329 3.484 1.329 4.813 0l7.95-7.95z" fill="#fd4755"/><g><g><path d="m107.092 258.27-20.152-20.151c-1.329-1.329-3.484-1.329-4.813 0l-36.232 36.231c-1.329 1.329-1.329 3.484 0 4.813l20.151 20.151c1.329 1.329 3.484 1.329 4.813 0l36.232-36.232c1.33-1.328 1.33-3.483.001-4.812z" fill="#a2e62e"/></g></g><path d="m66.806 277.042c-1.329-1.329-1.329-3.484 0-4.813l27.122-27.122-6.988-6.988c-1.329-1.329-3.484-1.329-4.813 0l-36.232 36.231c-1.329 1.329-1.329 3.484 0 4.813l20.151 20.151c1.329 1.329 3.484 1.329 4.813 0l9.11-9.11z" fill="#97d729"/><g><path d="m222.679 27.444-17.794 17.794c-1.277 1.277-1.277 3.346 0 4.623l17.794 17.794c1.277 1.277 3.346 1.277 4.623 0l17.794-17.794c1.277-1.277 1.277-3.346 0-4.623l-17.794-17.794c-1.276-1.276-3.346-1.276-4.623 0z" fill="#fe646f"/></g><g><path d="m449.112 36.923-17.794 17.794c-1.277 1.277-1.277 3.346 0 4.623l17.794 17.794c1.277 1.277 3.346 1.277 4.623 0l17.794-17.794c1.277-1.277 1.277-3.346 0-4.623l-17.794-17.794c-1.277-1.277-3.347-1.277-4.623 0z" fill="#fe646f"/></g><g><path d="m307.215 356.633-17.794 17.794c-1.277 1.277-1.277 3.346 0 4.623l17.794 17.794c1.277 1.277 3.346 1.277 4.623 0l17.794-17.794c1.277-1.277 1.277-3.346 0-4.623l-17.794-17.794c-1.277-1.277-3.347-1.277-4.623 0z" fill="#fea613"/></g><g><path d="m131.909 42.993 8.316 16.85c.46.933 1.35 1.579 2.379 1.728l18.595 2.702c2.592.377 3.626 3.561 1.751 5.389l-13.455 13.116c-.745.726-1.084 1.772-.909 2.797l3.176 18.519c.443 2.581-2.266 4.549-4.584 3.331l-16.631-8.744c-.92-.484-2.02-.484-2.941 0l-16.631 8.744c-2.318 1.219-5.027-.75-4.584-3.331l3.176-18.519c.176-1.025-.164-2.071-.909-2.797l-13.456-13.116c-1.875-1.828-.84-5.013 1.751-5.389l18.595-2.702c1.029-.15 1.919-.796 2.379-1.728l8.316-16.85c1.158-2.349 4.507-2.349 5.666 0z" fill="#ffe177"/></g><g><path d="m123.483 99.299 3.176-18.519c.176-1.025-.164-2.071-.909-2.797l-13.455-13.116c-.782-.762-1.052-1.759-.92-2.691l-14.422 2.096c-2.592.377-3.626 3.561-1.751 5.389l13.455 13.116c.745.726 1.084 1.772.909 2.797l-3.176 18.519c-.443 2.581 2.266 4.549 4.584 3.331l12.612-6.631c-.146-.458-.194-.961-.103-1.494z" fill="#ffd15b"/></g><g><path d="m213.96 373.605 8.316 16.85c.46.933 1.35 1.579 2.379 1.728l18.595 2.702c2.592.377 3.626 3.561 1.751 5.389l-13.455 13.116c-.745.726-1.084 1.772-.909 2.797l3.176 18.519c.443 2.581-2.266 4.549-4.584 3.331l-16.631-8.744c-.92-.484-2.02-.484-2.941 0l-16.631 8.744c-2.318 1.219-5.027-.75-4.584-3.331l3.176-18.519c.176-1.025-.164-2.071-.909-2.797l-13.455-13.116c-1.875-1.828-.84-5.013 1.751-5.389l18.595-2.702c1.029-.15 1.919-.796 2.379-1.728l8.316-16.85c1.158-2.349 4.506-2.349 5.665 0z" fill="#ffe177"/></g><g><path d="m204.483 429.862 3.176-18.519c.176-1.025-.164-2.071-.909-2.797l-13.455-13.116c-.724-.706-1.01-1.614-.944-2.485l-13.346 1.939c-2.591.377-3.626 3.561-1.751 5.389l13.455 13.116c.745.726 1.084 1.772.909 2.797l-3.176 18.519c-.443 2.581 2.266 4.549 4.584 3.331l11.768-6.187c-.302-.575-.437-1.254-.311-1.987z" fill="#ffd15b"/></g><g><path d="m380.883 58.481-6.034 17.795c-.334.985-.162 2.071.46 2.904l11.238 15.059c1.566 2.099.046 5.082-2.573 5.049l-18.788-.24c-1.04-.013-2.02.486-2.62 1.335l-10.849 15.341c-1.512 2.138-4.819 1.614-5.597-.886l-5.578-17.943c-.309-.993-1.086-1.771-2.079-2.079l-17.943-5.578c-2.501-.777-3.025-4.085-.886-5.597l15.341-10.849c.849-.6 1.348-1.58 1.335-2.62l-.24-18.788c-.033-2.619 2.95-4.139 5.049-2.573l15.059 11.238c.833.622 1.919.794 2.904.46l17.795-6.034c2.479-.842 4.847 1.526 4.006 4.006z" fill="#ffe177"/></g><g><path d="m358.94 102.777-5.578-17.943c-.309-.993-1.086-1.771-2.079-2.079l-17.943-5.578c-.982-.305-1.654-1.003-1.985-1.827l-11.722 8.29c-2.138 1.512-1.614 4.819.886 5.597l17.943 5.578c.993.309 1.771 1.086 2.079 2.079l5.578 17.943c.777 2.501 4.085 3.025 5.597.886l8.145-11.518c-.409-.36-.737-.836-.921-1.428z" fill="#ffd15b"/></g><g><path d="m26.811 437.169c-4.143 0-7.5-3.358-7.5-7.5v-32.04c0-4.142 3.357-7.5 7.5-7.5h19.823v-19.823c0-4.142 3.357-7.5 7.5-7.5h19.822v-19.823c0-4.142 3.357-7.5 7.5-7.5s7.5 3.358 7.5 7.5v27.323c0 4.142-3.357 7.5-7.5 7.5h-19.822v19.823c0 4.142-3.357 7.5-7.5 7.5h-19.823v24.54c0 4.143-3.357 7.5-7.5 7.5z" fill="#af66da"/></g><g><path d="m45.891 74.362h-27.322c-4.143 0-7.5-3.358-7.5-7.5s3.357-7.5 7.5-7.5h19.822v-19.822c0-4.142 3.357-7.5 7.5-7.5h19.823v-24.54c0-4.142 3.357-7.5 7.5-7.5s7.5 3.358 7.5 7.5v32.04c0 4.142-3.357 7.5-7.5 7.5h-19.823v19.823c0 4.141-3.357 7.499-7.5 7.499z" fill="#46cc8d"/></g><g><path d="m438.785 348.886c-4.143 0-7.5-3.358-7.5-7.5v-27.323c0-4.142 3.357-7.5 7.5-7.5h19.823v-19.823c0-4.142 3.357-7.5 7.5-7.5h19.823v-24.54c0-4.142 3.357-7.5 7.5-7.5s7.5 3.358 7.5 7.5v32.04c0 4.142-3.357 7.5-7.5 7.5h-19.823v19.823c0 4.142-3.357 7.5-7.5 7.5h-19.823v19.823c0 4.142-3.358 7.5-7.5 7.5z" fill="#97d729"/></g><g fill="#fe99a0"><circle cx="279.753" cy="72.827" r="7.5"/><circle cx="481.963" cy="218.16" r="7.5"/><circle cx="133.363" cy="150.76" r="7.5"/><circle cx="28.093" cy="230.31" r="7.5"/><circle cx="104.223" cy="416.078" r="7.5"/></g></g></svg>