<svg width="22" height="22" viewBox="0 0 22 22" fill="none" xmlns="http://www.w3.org/2000/svg">
<path fill-rule="evenodd" clip-rule="evenodd" d="M0 11C0 4.93488 4.93488 0 11 0C17.0651 0 22 4.93488 22 11C22 17.0651 17.0651 22 11 22H0.6875C0.308 22 0 21.692 0 21.3125V11ZM1.375 20.625H11C16.3075 20.625 20.625 16.3075 20.625 11C20.625 5.6925 16.3075 1.375 11 1.375C5.6925 1.375 1.375 5.6925 1.375 11V20.625Z" fill="black"/>
<path d="M11.3 13H5.7C5.3136 13 5 13.224 5 13.5C5 13.776 5.3136 14 5.7 14H11.3C11.6864 14 12 13.776 12 13.5C12 13.224 11.6864 13 11.3 13Z" fill="black"/>
<path d="M16.3125 8H6.6875C6.308 8 6 8.224 6 8.5C6 8.776 6.308 9 6.6875 9H16.3125C16.692 9 17 8.776 17 8.5C17 8.224 16.692 8 16.3125 8Z" fill="black"/>
</svg>
