<svg width="21" height="21" viewBox="0 0 21 21" fill="none" xmlns="http://www.w3.org/2000/svg">
<path fill-rule="evenodd" clip-rule="evenodd" d="M0 10.5C0 4.70101 4.70101 0 10.5 0C16.2963 0.00655797 20.9934 4.70373 21 10.5C21 16.299 16.299 21 10.5 21C4.70101 21 0 16.299 0 10.5ZM1.4 10.5C1.4 15.5258 5.47421 19.6 10.5 19.6C15.5234 19.5942 19.5942 15.5234 19.6 10.5C19.6 5.47421 15.5258 1.4 10.5 1.4C5.47421 1.4 1.4 5.47421 1.4 10.5Z" fill="black"/>
<path d="M14.9118 7.19672L9.09775 13.0084L6.08803 9.99991C5.81294 9.73433 5.37567 9.73812 5.10524 10.0084C4.83481 10.2788 4.83101 10.7159 5.0967 10.9908L8.60209 14.4948C8.87586 14.7684 9.31964 14.7684 9.59341 14.4948L15.9031 8.18765C16.1688 7.91267 16.165 7.47558 15.8946 7.20526C15.6241 6.93494 15.1869 6.93114 14.9118 7.19672Z" fill="black"/>
</svg>
