<svg width="254" height="255" viewBox="0 0 254 255" fill="none" xmlns="http://www.w3.org/2000/svg">
<path d="M57.3799 21.77H89.0399V81.13H179.08V115.76" stroke="#B2DBF7" stroke-width="1.98" stroke-linecap="round" stroke-linejoin="round"/>
<path d="M52.4399 10.88H98.9399V71.24H179.08" stroke="#B2DBF7" stroke-width="1.98" stroke-linecap="round" stroke-linejoin="round"/>
<path d="M239.43 80.14V155.33H206.78V168.19H246.35V93.99" stroke="#B2DBF7" stroke-width="1.98" stroke-linecap="round" stroke-linejoin="round"/>
<path fill-rule="evenodd" clip-rule="evenodd" d="M241.71 18.6399C239.672 19.3278 237.966 20.7552 236.93 22.6399C235.82 24.6638 235.565 27.0468 236.22 29.2599L236.57 30.4499L238.95 29.7499L238.6 28.5599C238.137 26.9736 238.324 25.2681 239.12 23.8199V23.9199C239.673 25.7907 241.389 27.0759 243.34 27.0799C244.718 27.0703 246.012 26.417 246.839 25.314C247.665 24.211 247.928 22.7852 247.55 21.4599V21.3699C249.007 22.1592 250.087 23.4989 250.55 25.0899L250.89 26.2799L253.28 25.5899L252.93 24.3899C251.624 19.9412 247.056 17.3007 242.55 18.3899L242.13 18.4899C241.987 18.531 241.846 18.5811 241.71 18.6399ZM243.15 24.5678C242.386 24.4826 241.747 23.9475 241.53 23.2099H241.54C241.395 22.7259 241.449 22.2038 241.692 21.7604C241.934 21.317 242.344 20.9891 242.83 20.8499C243.002 20.7982 243.18 20.7713 243.36 20.7699C243.679 20.7688 243.993 20.8515 244.27 21.0099C244.716 21.2526 245.047 21.6628 245.19 22.1499C245.328 22.6356 245.271 23.1562 245.03 23.5999C244.655 24.2715 243.914 24.6529 243.15 24.5678Z" fill="#B2DBF7"/>
<path d="M150.38 30.6401L158.15 28.41C161.43 15.8899 172.747 7.16151 185.69 7.17005H211.23C218.773 7.178 226.003 10.182 231.331 15.5211C236.659 20.8603 239.648 28.0973 239.64 35.6401C239.646 41.6153 237.763 47.4395 234.26 52.28L246.03 59.1501L240.8 66.1501L223.16 61.48C219.4 63.2239 215.304 64.1216 211.16 64.1101H185.69C181.546 64.1216 177.449 63.2239 173.69 61.48L156.05 66.1501L150.82 59.1501L162.44 52.37L159.87 47.8301H157L150.38 30.6401Z" fill="#DFF3FA"/>
<path fill-rule="evenodd" clip-rule="evenodd" d="M150.38 30.6401L158.15 28.41C161.43 15.8899 172.747 7.16151 185.69 7.17005H211.23C218.773 7.178 226.003 10.182 231.331 15.5211C236.659 20.8603 239.648 28.0973 239.64 35.6401V35.6401C239.646 41.6153 237.763 47.4395 234.26 52.28L246.03 59.1501L240.8 66.1501L223.16 61.48C219.4 63.2239 215.304 64.1216 211.16 64.1101H185.69C181.546 64.1216 177.449 63.2239 173.69 61.48L156.05 66.1501L150.82 59.1501L162.44 52.37L159.87 47.8301H157L150.38 30.6401Z" stroke="#B2DBF7" stroke-width="1.98" stroke-linecap="round" stroke-linejoin="round"/>
<path d="M182.18 4.46002V15.9C182.178 16.7974 181.633 17.6044 180.802 17.9422C179.97 18.2801 179.017 18.0816 178.39 17.44L168.11 6.86002C167.144 5.86846 166.867 4.39475 167.406 3.12001C167.945 1.84527 169.196 1.0178 170.58 1.02002H178.74C180.64 1.02002 182.18 2.56016 182.18 4.46002Z" fill="#DFF3FA"/>
<path fill-rule="evenodd" clip-rule="evenodd" d="M182.18 4.46002V15.9C182.178 16.7974 181.633 17.6044 180.802 17.9422C179.97 18.2801 179.017 18.0816 178.39 17.44L168.11 6.86002C167.144 5.86846 166.867 4.39475 167.406 3.12001C167.945 1.84527 169.196 1.0178 170.58 1.02002H178.74C180.64 1.02002 182.18 2.56016 182.18 4.46002V4.46002Z" stroke="#B2DBF7" stroke-width="1.98" stroke-linecap="round" stroke-linejoin="round"/>
<circle cx="166.49" cy="27.07" r="2.56" fill="#B2DBF7"/>
<path d="M214.33 14.84H189.81" stroke="#B2DBF7" stroke-width="1.98" stroke-linecap="round" stroke-linejoin="round"/>
<circle cx="31.37" cy="31.37" r="31.37" fill="#B2DBF7"/>
<circle cx="31.3702" cy="31.3701" r="24.44" fill="#DFF3FA"/>
<path fill-rule="evenodd" clip-rule="evenodd" d="M39.3498 35.71C39.4094 37.2753 38.7321 38.7781 37.5198 39.77C36.0474 40.9076 34.2587 41.5609 32.3998 41.64V44.9H30.2298V41.64C27.892 41.6432 25.577 41.1809 23.4198 40.28V36.08C24.4871 36.5924 25.6025 36.9977 26.7498 37.29C27.8871 37.6083 29.0525 37.8159 30.2298 37.91V33.01L29.1598 32.64C27.4932 32.0778 25.9706 31.156 24.6998 29.94C23.8209 28.9505 23.3524 27.663 23.3898 26.34C23.3597 24.8638 24.0266 23.4596 25.1898 22.55C26.6393 21.4629 28.3802 20.8327 30.1898 20.74V18.27H32.3598V20.64C34.629 20.7053 36.8653 21.2008 38.9498 22.1L37.4498 25.82C35.8266 25.1486 34.1099 24.7304 32.3598 24.58V29.27C33.8966 29.8154 35.3769 30.5087 36.7798 31.34C37.5581 31.8249 38.2149 32.4817 38.6998 33.26C39.1334 34.0031 39.358 34.8497 39.3498 35.71ZM28.1698 26.3C28.1568 26.7326 28.3275 27.1504 28.6398 27.45C29.1113 27.8401 29.6411 28.1539 30.2098 28.38V24.64C28.8598 24.85 28.1698 25.4 28.1698 26.3ZM34.0298 34.82C34.3739 35.0936 34.5731 35.5104 34.5698 35.95C34.5698 36.96 33.8498 37.58 32.3998 37.82V33.82C32.9867 34.0764 33.5353 34.413 34.0298 34.82Z" fill="#B2DBF7"/>
<path d="M137.24 21V59.31H110.1V21L123.4 10.88L137.24 21Z" fill="#DFF3FA"/>
<path fill-rule="evenodd" clip-rule="evenodd" d="M137.24 21V59.31H110.1V21L123.4 10.88L137.24 21V21Z" stroke="#B2DBF7" stroke-width="1.98" stroke-linecap="round" stroke-linejoin="round"/>
<circle cx="123.41" cy="18.3401" r="2.66" fill="#B2DBF7"/>
<path d="M230.52 100.92H212.71" stroke="#DFF3FA" stroke-width="1.98" stroke-linecap="round" stroke-linejoin="round"/>
<path d="M223.24 106.85H212.71" stroke="#DFF3FA" stroke-width="1.98" stroke-linecap="round" stroke-linejoin="round"/>
<path d="M230.52 112.79H212.71" stroke="#DFF3FA" stroke-width="1.98" stroke-linecap="round" stroke-linejoin="round"/>
<path d="M223.24 118.73H212.71" stroke="#DFF3FA" stroke-width="1.98" stroke-linecap="round" stroke-linejoin="round"/>
<path d="M230.52 124.66H212.71" stroke="#B2DBF7" stroke-width="1.98" stroke-linecap="round" stroke-linejoin="round"/>
<path d="M223.24 130.6H212.71" stroke="#B2DBF7" stroke-width="1.98" stroke-linecap="round" stroke-linejoin="round"/>
<path d="M230.52 136.53H212.71" stroke="#B2DBF7" stroke-width="1.98" stroke-linecap="round" stroke-linejoin="round"/>
<rect x="231.51" y="183.03" width="21.77" height="21.77" fill="#B2DBF7"/>
<circle cx="237.62" cy="189.14" r="2.23" stroke="#FDFEFF" stroke-width="1.98" stroke-linecap="round" stroke-linejoin="round"/>
<circle cx="247.17" cy="198.69" r="2.23" stroke="#FDFEFF" stroke-width="1.98" stroke-linecap="round" stroke-linejoin="round"/>
<path d="M247.05 189.26L237.74 198.58" stroke="#FDFEFF" stroke-width="1.98" stroke-linecap="round" stroke-linejoin="round"/>
<rect x="231.51" y="212.71" width="21.77" height="21.77" fill="#B2DBF7"/>
<circle cx="237.62" cy="218.82" r="2.23" stroke="#FDFEFF" stroke-width="1.98" stroke-linecap="round" stroke-linejoin="round"/>
<circle cx="247.17" cy="228.37" r="2.23" stroke="#FDFEFF" stroke-width="1.98" stroke-linecap="round" stroke-linejoin="round"/>
<path d="M247.05 218.94L237.74 228.26" stroke="#FDFEFF" stroke-width="1.98" stroke-linecap="round" stroke-linejoin="round"/>
<path d="M29.7598 79.06V71.49V79.06Z" fill="#F3FCFF"/>
<path d="M29.7598 79.06V71.49" stroke="#B2DBF7" stroke-width="1.98" stroke-linecap="round" stroke-linejoin="round"/>
<path d="M65.0601 79.06V57.21V79.06Z" fill="#F3FCFF"/>
<path d="M65.0601 79.06V57.21" stroke="#B2DBF7" stroke-width="1.98" stroke-linecap="round" stroke-linejoin="round"/>
<path d="M65.0601 79.06V71.49H12.1201V79.06" stroke="#B2DBF7" stroke-width="1.98" stroke-linecap="round" stroke-linejoin="round"/>
<circle cx="65.0599" cy="79.8999" r="4.2" fill="#F3FCFF" stroke="#B2DBF7" stroke-width="1.98" stroke-linecap="round" stroke-linejoin="round"/>
<circle cx="29.7601" cy="79.8999" r="4.2" fill="#F3FCFF" stroke="#B2DBF7" stroke-width="1.98" stroke-linecap="round" stroke-linejoin="round"/>
<path d="M47.4102 79.06V71.49V79.06Z" fill="#F3FCFF"/>
<path d="M47.4102 79.06V71.49" stroke="#B2DBF7" stroke-width="1.98" stroke-linecap="round" stroke-linejoin="round"/>
<circle cx="47.41" cy="79.8999" r="4.2" fill="#F3FCFF" stroke="#B2DBF7" stroke-width="1.98" stroke-linecap="round" stroke-linejoin="round"/>
<circle cx="12.1199" cy="79.8999" r="4.2" fill="#F3FCFF" stroke="#B2DBF7" stroke-width="1.98" stroke-linecap="round" stroke-linejoin="round"/>
<circle cx="65.0599" cy="57.21" r="4.2" fill="#F3FCFF" stroke="#B2DBF7" stroke-width="1.98" stroke-linecap="round" stroke-linejoin="round"/>
<path d="M18.8002 163.25H4.9502" stroke="#DFF3FA" stroke-width="1.98" stroke-linecap="round" stroke-linejoin="round"/>
<path d="M13.1302 169.18H4.9502" stroke="#DFF3FA" stroke-width="1.98" stroke-linecap="round" stroke-linejoin="round"/>
<path d="M18.8002 175.12H4.9502" stroke="#DFF3FA" stroke-width="1.98" stroke-linecap="round" stroke-linejoin="round"/>
<path d="M13.1302 181.05H4.9502" stroke="#DFF3FA" stroke-width="1.98" stroke-linecap="round" stroke-linejoin="round"/>
<path d="M18.8002 186.99H4.9502" stroke="#B2DBF7" stroke-width="1.98" stroke-linecap="round" stroke-linejoin="round"/>
<path d="M13.1302 192.93H4.9502" stroke="#B2DBF7" stroke-width="1.98" stroke-linecap="round" stroke-linejoin="round"/>
<path d="M18.8002 198.86H4.9502" stroke="#B2DBF7" stroke-width="1.98" stroke-linecap="round" stroke-linejoin="round"/>
<path d="M18.8002 217.66H4.9502" stroke="#DFF3FA" stroke-width="1.98" stroke-linecap="round" stroke-linejoin="round"/>
<path d="M13.1302 223.6H4.9502" stroke="#DFF3FA" stroke-width="1.98" stroke-linecap="round" stroke-linejoin="round"/>
<path d="M18.8002 229.53H4.9502" stroke="#DFF3FA" stroke-width="1.98" stroke-linecap="round" stroke-linejoin="round"/>
<path d="M13.1302 235.47H4.9502" stroke="#DFF3FA" stroke-width="1.98" stroke-linecap="round" stroke-linejoin="round"/>
<path d="M18.8002 241.41H4.9502" stroke="#B2DBF7" stroke-width="1.98" stroke-linecap="round" stroke-linejoin="round"/>
<path d="M13.1302 247.34H4.9502" stroke="#B2DBF7" stroke-width="1.98" stroke-linecap="round" stroke-linejoin="round"/>
<path d="M18.8002 253.28H4.9502" stroke="#B2DBF7" stroke-width="1.98" stroke-linecap="round" stroke-linejoin="round"/>
<rect x="28.6899" y="144.74" width="195.89" height="106.56" fill="#5E9FE1"/>
<rect x="46.9902" y="159.81" width="159.3" height="76.42" fill="#DFF3FA"/>
<rect x="212.75" y="144.74" width="11.84" height="106.56" fill="#4194D8"/>
<rect x="206.29" y="236.23" width="12.92" height="76.42" transform="rotate(180 206.29 236.23)" fill="#B2DBF7"/>
<rect x="28.6899" y="144.74" width="195.89" height="106.56" stroke="#1779DA" stroke-width="3.96" stroke-linecap="round" stroke-linejoin="round"/>
<rect x="46.9902" y="159.81" width="159.3" height="76.42" stroke="#1779DA" stroke-width="3.96" stroke-linecap="round" stroke-linejoin="round"/>
<path d="M74.2398 189.36C72.4571 189.279 70.7538 190.103 69.7098 191.55C68.5466 193.36 67.9833 195.491 68.0998 197.64C68.0998 203.08 70.1465 205.803 74.2398 205.81C76.3734 205.726 78.4785 205.291 80.4698 204.52V208.86C78.3362 209.724 76.0514 210.152 73.7498 210.12C70.1965 210.12 67.4798 209.04 65.5998 206.88C63.7198 204.72 62.7765 201.64 62.7698 197.64C62.7225 195.34 63.1977 193.059 64.1598 190.97C65.0162 189.132 66.4112 187.597 68.1598 186.57C70.0165 185.526 72.1202 185 74.2498 185.05C76.7325 185.075 79.1772 185.663 81.3998 186.77L79.7298 190.98C78.8317 190.549 77.9103 190.168 76.9698 189.84C76.0932 189.528 75.1703 189.366 74.2398 189.36Z" fill="#5E9FE1"/>
<path d="M85.6401 209.82V185.4H90.8401V205.55H100.75V209.82H85.6401Z" fill="#5E9FE1"/>
<path fill-rule="evenodd" clip-rule="evenodd" d="M124.17 206.9C126.17 204.727 127.17 201.62 127.17 197.58C127.17 193.52 126.17 190.41 124.19 188.25C122.21 186.09 119.33 185.01 115.58 185.01C111.814 185.01 108.93 186.083 106.93 188.23C104.93 190.377 103.93 193.48 103.93 197.54C103.93 201.607 104.93 204.727 106.93 206.9C108.93 209.073 111.804 210.16 115.55 210.16C119.297 210.16 122.17 209.073 124.17 206.9ZM110.89 203.74C109.857 202.36 109.34 200.307 109.34 197.58C109.34 194.853 109.864 192.793 110.91 191.4C112.027 189.983 113.769 189.205 115.57 189.32C119.69 189.34 121.747 192.093 121.74 197.58C121.734 203.067 119.667 205.81 115.54 205.81C113.743 205.931 112.003 205.156 110.89 203.74Z" fill="#5E9FE1"/>
<path d="M146.64 203.04C146.725 205.057 145.84 206.993 144.26 208.25C142.333 209.626 139.994 210.3 137.63 210.16C135.245 210.207 132.88 209.704 130.72 208.69V203.88C132.071 204.505 133.469 205.023 134.9 205.43C135.92 205.713 136.972 205.864 138.03 205.88C138.949 205.937 139.864 205.71 140.65 205.23C141.631 204.452 141.852 203.053 141.16 202.01C140.834 201.585 140.435 201.223 139.98 200.94C138.958 200.322 137.9 199.768 136.81 199.28C135.609 198.766 134.483 198.093 133.46 197.28C132.723 196.65 132.115 195.882 131.67 195.02C130.368 192.274 130.986 189.002 133.2 186.92C134.936 185.595 137.09 184.938 139.27 185.07C140.494 185.064 141.714 185.216 142.9 185.52C144.139 185.847 145.349 186.272 146.52 186.79L144.85 190.79C143.806 190.338 142.734 189.954 141.64 189.64C140.816 189.435 139.97 189.331 139.12 189.33C138.312 189.272 137.511 189.514 136.87 190.01C136.348 190.455 136.057 191.114 136.08 191.8C136.071 192.219 136.182 192.632 136.4 192.99C136.663 193.387 137.003 193.728 137.4 193.99C138.458 194.626 139.553 195.197 140.68 195.7C142.472 196.433 144.078 197.557 145.38 198.99C146.247 200.158 146.691 201.586 146.64 203.04Z" fill="#5E9FE1"/>
<path d="M165.14 209.82H151.08V185.4H165.14V189.64H156.26V195H164.53V199.25H156.26V205.55H165.14V209.82Z" fill="#5E9FE1"/>
<path fill-rule="evenodd" clip-rule="evenodd" d="M187.07 206.62C189.364 204.46 190.51 201.38 190.51 197.38C190.497 193.593 189.394 190.65 187.2 188.55C185.007 186.45 181.91 185.4 177.91 185.4H170.24V209.82H177.16C181.474 209.847 184.777 208.78 187.07 206.62ZM178.13 189.64C182.797 189.64 185.13 192.263 185.13 197.51C185.13 202.87 182.634 205.55 177.64 205.55H175.37V189.64H178.13Z" fill="#5E9FE1"/>
<path d="M57.3799 144.45L126.64 83.11L195.89 144.45" stroke="#1779DA" stroke-width="3.96" stroke-linecap="round" stroke-linejoin="round"/>
<circle cx="126.64" cy="85.09" r="9.89" fill="#5E9FE1"/>
<circle cx="126.64" cy="85.09" r="9.89" stroke="#1779DA" stroke-width="3.96" stroke-linecap="round" stroke-linejoin="round"/>
<rect x="13.9399" y="94.98" width="35.43" height="38.84" fill="#DFF3FA"/>
<path d="M9.91992 101.45H18.6399V109.03C18.6399 111.432 16.6924 113.38 14.2899 113.38C11.8875 113.38 9.93992 111.432 9.93992 109.03V101.45L9.91992 101.45Z" fill="#B2DBF7"/>
<path d="M18.6401 101.45H27.3401V109.03C27.3401 111.432 25.3926 113.38 22.9901 113.38C20.5877 113.38 18.6401 111.432 18.6401 109.03V101.45Z" fill="#F3FCFF"/>
<path d="M27.31 101.45H36.01V109.03C36.0101 110.187 35.549 111.297 34.7289 112.113C33.9088 112.929 32.7972 113.385 31.64 113.38C30.4863 113.38 29.3799 112.922 28.5641 112.106C27.7483 111.29 27.29 110.184 27.29 109.03V101.45L27.31 101.45Z" fill="#B2DBF7"/>
<path d="M44.7002 101.45H53.4002V109.03C53.4002 111.432 51.4526 113.38 49.0502 113.38C46.6478 113.38 44.7002 111.432 44.7002 109.03V101.45V101.45Z" fill="#B2DBF7"/>
<path d="M36.0098 101.45H44.7098V109.03C44.7098 111.432 42.7622 113.38 40.3598 113.38C37.9573 113.38 36.0098 111.432 36.0098 109.03V101.45V101.45Z" fill="#F3FCFF"/>
<rect x="28.9399" y="117.13" width="17.38" height="9.54" fill="#B2DBF7"/>
<rect x="17.0098" y="117.13" width="8.86" height="16.69" fill="#B2DBF7"/>
<path d="M205.97 107.84L195.89 99.21L185.82 107.84" stroke="#DFF3FA" stroke-width="1.98" stroke-linecap="round" stroke-linejoin="round"/>
<path d="M205.97 96.33L195.89 87.7L185.82 96.33" stroke="#DFF3FA" stroke-width="1.98" stroke-linecap="round" stroke-linejoin="round"/>
<path d="M205.97 84.8201L195.89 76.1801L185.82 84.8201" stroke="#DFF3FA" stroke-width="1.98" stroke-linecap="round" stroke-linejoin="round"/>
<rect x="114.25" y="121.61" width="4.65" height="11.26" fill="#DFF3FA"/>
<rect x="121.99" y="124.29" width="4.65" height="8.58" fill="#DFF3FA"/>
<rect x="129.74" y="118.93" width="4.65" height="13.94" fill="#DFF3FA"/>
<rect x="137.48" y="114.64" width="4.65" height="18.23" fill="#DFF3FA"/>
<path d="M108.83 120V135.54H144.45" stroke="#B2DBF7" stroke-width="1.98" stroke-linecap="round" stroke-linejoin="round"/>
</svg>
