<svg id="Layer_1" enable-background="new 0 0 512 512" height="512" viewBox="0 0 512 512" width="512" xmlns="http://www.w3.org/2000/svg"><g><g><g><path d="m255.998 451.959c-2.909 0-138.662 0-138.662 0-8.77 0-16.082-4.1-19.561-10.968-3.478-6.867-2.456-15.189 2.734-22.26l17.427-23.674c-36.951-36.697-57.895-86.634-57.895-139.057 0-108.052 87.906-195.959 195.957-195.959 108.054 0 195.961 87.907 195.961 195.959 0 108.053-87.907 195.959-195.961 195.959zm0-30c91.511 0 165.961-74.448 165.961-165.959 0-91.51-74.45-165.959-165.961-165.959-91.509 0-165.957 74.449-165.957 165.959 0 48.346 21.034 94.196 57.709 125.796l10.524 9.067-22.89 31.096z"/></g><g><g><path d="m203.758 256c0 11.53-9.346 20.878-20.877 20.878-11.533 0-20.881-9.348-20.881-20.878 0-11.533 9.348-20.881 20.881-20.881 11.531 0 20.877 9.349 20.877 20.881z"/></g><g><circle cx="256.008" cy="256" r="20.878"/></g><g><circle cx="329.139" cy="256" r="20.879"/></g></g></g></g></svg>