<svg width="64" height="70" viewBox="0 0 64 70" fill="none" xmlns="http://www.w3.org/2000/svg">
<path d="M50.7951 7.20056C36.9258 7.20056 27.4016 0 20.7186 0C14.0357 0 0 3.85048 0 34.6644C0 65.4783 18.882 70 26.2327 70C60.6541 70.002 75.3575 7.20056 50.7951 7.20056Z" fill="#EFEFEF"/>
<path fill-rule="evenodd" clip-rule="evenodd" d="M9 7C9 8.654 10.346 10 12 10C13.654 10 15 8.654 15 7C15 5.346 13.654 4 12 4C10.346 4 9 5.346 9 7ZM11 7C11 6.45 11.45 6 12 6C12.55 6 13 6.45 13 7C13 7.55 12.55 8 12 8C11.45 8 11 7.55 11 7Z" fill="#A4AFC1"/>
<circle cx="16.5" cy="45.5" r="2.5" fill="#F3F3F1"/>
<path d="M23 59V56.6923C23 54.6523 21.21 53 19 53H14C11.79 53 10 54.6523 10 56.6923V59H23Z" fill="#F3F3F1"/>
<circle cx="48.5" cy="45.5" r="2.5" fill="#F3F3F1"/>
<path d="M55 59V56.6923C55 54.6523 53.21 53 51 53H46C43.79 53 42 54.6523 42 56.6923V59H55Z" fill="#F3F3F1"/>
<path d="M15.6541 29.3559L10.6381 24.3398C9.70812 23.4097 9.81612 21.8977 10.8221 21.0377C23.32 10.3375 41.812 10.3094 54.1999 21.0217C55.1859 21.8737 55.2839 23.3697 54.3639 24.3038L49.4999 29.2379C48.7779 29.9599 47.6579 30.1019 46.7859 29.5819L41.698 26.5398C40.934 26.0838 40.52 25.2098 40.65 24.3258L41.288 19.9597C35.66 18.0796 29.554 18.0856 23.912 19.9097L24.536 24.3818C24.66 25.2658 24.24 26.1398 23.472 26.6038L18.3621 29.6799C17.4901 30.2059 16.3721 30.0739 15.6541 29.3559Z" fill="#2FDF84"/>
<path d="M18.7368 45.5C18.7368 45.12 18.84 44.77 19 44.448C18.5789 43.598 17.6842 43 16.6316 43C15.1789 43 14 44.12 14 45.5C14 46.88 15.1789 48 16.6316 48C17.6842 48 18.5789 47.402 19 46.552C18.84 46.23 18.7368 45.88 18.7368 45.5Z" fill="#D5DBE1"/>
<path d="M18 53H13.2353C10.8953 53 9 54.6523 9 56.6923V59H13.7647V56.6923C13.7647 54.6523 15.66 53 18 53Z" fill="#D5DBE1"/>
<path d="M50.7368 45.5C50.7368 45.12 50.84 44.77 51 44.448C50.5789 43.598 49.6842 43 48.6316 43C47.1789 43 46 44.12 46 45.5C46 46.88 47.1789 48 48.6316 48C49.6842 48 50.5789 47.402 51 46.552C50.84 46.23 50.7368 45.88 50.7368 45.5Z" fill="#D5DBE1"/>
<path d="M50 53H45.2353C42.8953 53 41 54.6523 41 56.6923V59H45.7647V56.6923C45.7647 54.6523 47.66 53 50 53Z" fill="#D5DBE1"/>
<path d="M14.171 24.3323C13.2349 23.4012 13.3436 21.8874 14.3562 21.0264C20.0452 16.1807 26.9703 13.5456 34 13.077C25.4665 12.5024 16.7357 15.1415 9.8267 21.0264C8.81411 21.8874 8.70742 23.4012 9.64149 24.3323L14.6903 29.3543C15.4131 30.0731 16.5384 30.2073 17.4181 29.6786L18.7467 28.8837L14.171 24.3323Z" fill="#00B871"/>
<path d="M46.2807 25.748C45.5234 25.3058 45.113 24.4584 45.2419 23.6013L45.8743 19.3681C42.3592 18.2202 38.6578 17.8013 35 18.0864C37.1709 18.259 39.3259 18.6856 41.4136 19.3681L40.7811 23.6013C40.6523 24.4584 41.0626 25.3039 41.82 25.748L46.8636 28.6974C47.728 29.2016 48.8362 29.0658 49.5539 28.3639L50 27.9217L46.2807 25.748Z" fill="#00B871"/>
<path d="M31 29H34V45H31V29Z" fill="black"/>
<path d="M24 33H27V41H24V33Z" fill="black"/>
<path d="M37 33H40V41H37V33Z" fill="black"/>
<path fill-rule="evenodd" clip-rule="evenodd" d="M14.0911 29.9111C14.8071 30.627 15.7531 31 16.7111 31C17.3731 31 18.0391 30.8235 18.6371 30.4586L23.747 27.3744C25.031 26.5983 25.729 25.1365 25.523 23.6505L25.077 20.448C29.677 19.1947 34.577 19.2067 39.1189 20.4841L38.6649 23.5864C38.4489 25.0783 39.1389 26.5402 40.4289 27.3122L45.5169 30.3623C46.9749 31.2406 48.8489 31.006 50.0669 29.7828L54.9309 24.8357C55.6589 24.0937 56.0389 23.1151 55.9969 22.0764C55.9549 21.0336 55.4729 20.041 54.6789 19.3531C41.8289 8.21362 22.337 8.21362 9.34311 19.3652C8.53111 20.065 8.04311 21.0717 8.00312 22.1285C7.96112 23.1692 8.34511 24.1478 9.07711 24.8818L14.0911 29.9111ZM11.2931 21.6472C17.2351 16.5477 24.661 13.9989 32.071 13.9989C39.4689 13.9989 46.8509 16.5437 52.7189 21.6292C52.8909 21.7776 52.9909 21.9821 53.0009 22.1987C53.0049 22.339 52.9749 22.5436 52.7949 22.7261L47.9389 27.6652C47.7029 27.9038 47.3429 27.9519 47.0569 27.7835L41.9689 24.7334C41.7249 24.587 41.5929 24.3103 41.6349 24.0235L42.2729 19.6439C42.3789 18.924 41.9529 18.2302 41.2629 18.0016C35.403 16.0343 28.901 16.0183 22.951 17.9474C22.259 18.172 21.827 18.8638 21.927 19.5858L22.551 24.0676C22.591 24.3584 22.453 24.6472 22.199 24.7996L17.0911 27.8837C16.8111 28.0502 16.4471 28.0141 16.2151 27.7835L11.1991 22.7541C11.0251 22.5797 10.9951 22.3792 10.9991 22.2428C11.0071 22.0202 11.1151 21.8016 11.2931 21.6472Z" fill="black"/>
<path fill-rule="evenodd" clip-rule="evenodd" d="M12 45C12 47.206 13.794 49 16 49C18.206 49 20 47.206 20 45C20 42.794 18.206 41 16 41C13.794 41 12 42.794 12 45ZM15 45C15 44.45 15.45 44 16 44C16.55 44 17 44.45 17 45C17 45.55 16.55 46 16 46C15.45 46 15 45.55 15 45Z" fill="black"/>
<path d="M24 59H21V56.5C21 55.122 19.878 54 18.5 54H13.5C12.122 54 11 55.122 11 56.5V59H8V56.5C8 53.466 10.466 51 13.5 51H18.5C21.534 51 24 53.466 24 56.5V59Z" fill="black"/>
<path fill-rule="evenodd" clip-rule="evenodd" d="M44 45C44 47.206 45.794 49 48 49C50.206 49 52 47.206 52 45C52 42.794 50.206 41 48 41C45.794 41 44 42.794 44 45ZM47 45C47 44.45 47.45 44 48 44C48.55 44 49 44.45 49 45C49 45.55 48.55 46 48 46C47.45 46 47 45.55 47 45Z" fill="black"/>
<path d="M56 59H53V56.5C53 55.122 51.878 54 50.5 54H45.5C44.122 54 43 55.122 43 56.5V59H40V56.5C40 53.466 42.466 51 45.5 51H50.5C53.534 51 56 53.466 56 56.5V59Z" fill="black"/>
<path d="M0 56H64V59H0V56Z" fill="black"/>
</svg>
