<svg width="22" height="22" viewBox="0 0 22 22" fill="none" xmlns="http://www.w3.org/2000/svg">
<path d="M15.525 22H2.47505C1.10973 22 0 20.8903 0 19.525V6.47505C0 5.10973 1.10973 4 2.47505 4H10.125C10.4976 4 10.8 4.3024 10.8 4.675C10.8 5.0476 10.4976 5.35 10.125 5.35H2.47505C1.85493 5.35 1.35 5.85493 1.35 6.47505V19.525C1.35 20.1451 1.85493 20.65 2.47505 20.65H15.525C16.1451 20.65 16.65 20.1451 16.65 19.525V11.875C16.65 11.5024 16.9524 11.2 17.325 11.2C17.6976 11.2 18 11.5016 18 11.875V19.525C18 20.8903 16.8903 22 15.525 22Z" fill="black"/>
<path fill-rule="evenodd" clip-rule="evenodd" d="M7.70374 15C7.51878 15 7.33845 14.9268 7.20608 14.7935C7.039 14.6273 6.96766 14.3878 7.01373 14.1578L7.67744 10.8378C7.7046 10.7008 7.77216 10.5758 7.8698 10.4782L17.5933 0.754941C18.5996 -0.251647 20.237 -0.251647 21.2443 0.754941C21.7315 1.24216 22 1.89012 22 2.58021C22 3.27029 21.7315 3.91808 21.2433 4.40547L11.521 14.1297C11.4234 14.2283 11.2975 14.295 11.1614 14.3221L7.84264 14.9859C7.79657 14.9954 7.74964 15 7.70374 15ZM8.6021 13.3982L9.01622 11.3233L18.5884 1.75018C19.0474 1.29288 19.7919 1.29288 20.2481 1.75018C20.4697 1.97264 20.5918 2.26663 20.5918 2.58021C20.5918 2.89379 20.4697 3.1876 20.2481 3.41023L10.6759 12.9832L8.6021 13.3982Z" fill="black"/>
<path d="M19.3062 6C19.1289 6 18.9514 5.9325 18.8165 5.79667L16.2031 3.18312C15.9323 2.91246 15.9323 2.47365 16.2031 2.20299C16.4738 1.93234 16.9127 1.93234 17.1836 2.20299L19.7969 4.81654C20.0677 5.0872 20.0677 5.52601 19.7969 5.79667C19.6611 5.93166 19.4837 6 19.3062 6Z" fill="black"/>
</svg>
