<svg width="84" height="76" viewBox="0 0 84 76" fill="none" xmlns="http://www.w3.org/2000/svg">
<path d="M81.7398 43.5619C72.8487 29.885 73.7937 15.8657 69.508 9.274C65.2224 2.68235 52.4499 -8.6824 22.2714 11.1209C-7.90706 30.9242 -0.231373 52.4515 4.48453 59.6998C26.5548 93.6429 97.4884 67.784 81.7398 43.5619Z" fill="#EFEFEF"/>
<path d="M69 40V55.2941C69 57.8824 66.88 60 64.2889 60H20.7111C18.12 60 16 57.8824 16 55.2941V40H24.8569C25.8933 40 26.812 40.6824 27.0947 41.6706L29.6387 50.0941C29.9213 51.0824 30.84 51.7647 31.8764 51.7647H53.1236C54.16 51.7647 55.0787 51.0824 55.3613 50.0941L57.9053 41.6706C58.188 40.6824 59.1067 40 60.1431 40H69Z" fill="#F3F3F1"/>
<path d="M69 39.3333H60.1431C59.1067 39.3333 58.188 40.01 57.9053 40.99L55.3613 49.3433C55.0787 50.3233 54.16 51 53.1236 51H31.8764C30.84 51 29.9213 50.3233 29.6387 49.3433L27.0947 40.99C26.812 40.01 25.8933 39.3333 24.8569 39.3333H16L26.6 16H58.4L69 39.3333Z" fill="#2FDF84"/>
<path d="M60.3423 50.296L62.8203 41.704C63.0956 40.696 63.9904 40 65 40H59.8375C58.8279 40 57.9331 40.696 57.6577 41.704L55.1797 50.296C54.9044 51.304 54.0096 52 53 52H58.1625C59.1721 52 60.0669 51.304 60.3423 50.296Z" fill="#D5DBE1"/>
<path d="M21.2941 55.2941V40H16V55.2941C16 57.8824 18.1176 60 20.7059 60H26C23.4118 60 21.2941 57.8824 21.2941 55.2941Z" fill="#D5DBE1"/>
<path d="M26.6667 16L16 40H21.3333L32 16H26.6667Z" fill="#00B871"/>
<path d="M34.8203 50.296L32.3423 41.704C32.0669 40.696 31.1721 40 30.1625 40H25C26.0096 40 26.9044 40.696 27.1797 41.704L29.6577 50.296C29.9331 51.304 30.8279 52 31.8375 52H37C35.9904 52 35.0956 51.304 34.8203 50.296Z" fill="#00B871"/>
<path fill-rule="evenodd" clip-rule="evenodd" d="M61.8951 7.52937C61.8951 9.47523 63.489 11.0587 65.4476 11.0587C67.4061 11.0587 69 9.47523 69 7.52937C69 5.58351 67.4061 4 65.4476 4C63.489 4 61.8951 5.58351 61.8951 7.52937ZM64.2634 7.52937C64.2634 6.88232 64.7939 6.35291 65.4476 6.35291C66.1012 6.35291 66.6317 6.88232 66.6317 7.52937C66.6317 8.17642 66.1012 8.70582 65.4476 8.70582C64.7939 8.70582 64.2634 8.17642 64.2634 7.52937Z" fill="#A4AFC1"/>
<path d="M16.422 7.10474L18.0964 5.44123L21.4451 8.76825L19.7707 10.4318L16.422 7.10474Z" fill="#A4AFC1"/>
<path d="M16 18.3364L19.3487 15.0094L21.0231 16.6729L17.6744 19.9999L16 18.3364Z" fill="#A4AFC1"/>
<path d="M25.6311 8.76953L28.9798 5.44251L30.6542 7.10602L27.3055 10.433L25.6311 8.76953Z" fill="#A4AFC1"/>
<path fill-rule="evenodd" clip-rule="evenodd" d="M20.5312 61H64.4688C68.0716 61 71 58.1024 71 54.5375V39.2625C71 39.0134 70.9478 38.7666 70.8433 38.5387L60.1558 15.0387C59.8684 14.4065 59.2319 14 58.5312 14H26.4688C25.7681 14 25.1316 14.4065 24.8442 15.0387L14.1567 38.5387C14.0522 38.7666 14 39.0134 14 39.2625V54.5375C14 58.1024 16.9284 61 20.5312 61ZM17.5625 54.5375V39.6409L27.6206 17.525H57.3794L67.4375 39.6409V54.5375C67.4375 56.1567 66.1051 57.475 64.4688 57.475H20.5312C18.8949 57.475 17.5625 56.1567 17.5625 54.5375Z" fill="black"/>
<path d="M53.1141 53H31.8859C30.0532 53 28.4656 51.8438 27.938 50.1223L25.4104 41.8746C25.3351 41.6323 25.1042 41.4615 24.8475 41.4615H16V38H24.8475C26.6801 38 28.2677 39.1562 28.7954 40.8777L31.3229 49.1254C31.3983 49.37 31.6291 49.5385 31.8859 49.5385H53.1141C53.3709 49.5385 53.6041 49.37 53.6771 49.1254L56.2046 40.8777C56.7323 39.1562 58.3176 38 60.1525 38H69V41.4615H60.1525C59.8958 41.4615 59.6626 41.63 59.5896 41.8746L57.062 50.1223C56.5344 51.8438 54.9468 53 53.1141 53Z" fill="black"/>
<path d="M4 58H80V62H4V58Z" fill="black"/>
</svg>
