<svg width="20" height="20" viewBox="0 0 20 20" fill="none" xmlns="http://www.w3.org/2000/svg">
<path d="M10 0C4.47715 0 0 4.47715 0 10C0 15.5228 4.47715 20 10 20C15.5228 20 20 15.5228 20 10C19.994 4.47963 15.5204 0.00597071 10 0Z" fill="black"/>
<path d="M1.33337 10C1.33337 5.21357 5.21357 1.33337 10 1.33337C14.7865 1.33337 18.6667 5.21357 18.6667 10C18.6615 14.7843 14.7843 18.6615 10 18.6667C5.21357 18.6667 1.33337 14.7865 1.33337 10Z" fill="black"/>
<path d="M13.1056 6.89429C12.802 6.59074 12.3098 6.59074 12.0061 6.89429L9.99526 8.90514L7.98442 6.89429C7.67931 6.59961 7.19432 6.60382 6.89438 6.90377C6.59443 7.20371 6.59022 7.6887 6.8849 7.99381L8.89575 10.0047L6.8849 12.0155C6.59022 12.3206 6.59443 12.8056 6.89438 13.1055C7.19432 13.4055 7.67931 13.4097 7.98442 13.115L9.99526 11.1042L12.0061 13.115C12.3112 13.4097 12.7962 13.4055 13.0962 13.1055C13.3961 12.8056 13.4003 12.3206 13.1056 12.0155L11.0948 10.0047L13.1056 7.99381C13.4092 7.69016 13.4092 7.19794 13.1056 6.89429Z" fill="white"/>
</svg>
