<svg width="22" height="22" viewBox="0 0 22 22" fill="none" xmlns="http://www.w3.org/2000/svg">
<path fill-rule="evenodd" clip-rule="evenodd" d="M3.42467 4.12833H0.916667C0.410406 4.12833 0 3.73924 0 3.25926C0 2.77928 0.410406 2.39018 0.916667 2.39018H3.42467C3.82913 0.979264 5.18021 0 6.72237 0C8.26454 0 9.61562 0.979264 10.0201 2.39018H21.0833C21.5896 2.39018 22 2.77928 22 3.25926C22 3.73924 21.5896 4.12833 21.0833 4.12833H10.0201C9.61562 5.53925 8.26454 6.51852 6.72237 6.51852C5.18021 6.51852 3.82913 5.53925 3.42467 4.12833ZM8.32608 3.25926C8.32608 2.4193 7.60787 1.73838 6.72192 1.73838C5.83638 1.73933 5.11876 2.4197 5.11775 3.25926C5.11775 4.09922 5.83596 4.78014 6.72192 4.78014C7.60787 4.78014 8.32608 4.09922 8.32608 3.25926Z" fill="black"/>
<path fill-rule="evenodd" clip-rule="evenodd" d="M18.5753 10.5386H21.0833C21.5896 10.5386 22 10.9276 22 11.4075C22 11.8873 21.5896 12.2763 21.0833 12.2763H18.5753C18.1715 13.6872 16.8204 14.6667 15.2781 14.6667C13.7357 14.6667 12.3846 13.6872 11.9808 12.2763H0.916667C0.410406 12.2763 0 11.8873 0 11.4075C0 10.9276 0.410406 10.5386 0.916667 10.5386H11.9808C12.3846 9.12769 13.7357 8.14819 15.2781 8.14819C16.8204 8.14819 18.1715 9.12769 18.5753 10.5386ZM13.6739 11.4075C13.6739 12.2472 14.3921 12.9279 15.2781 12.9279C16.1636 12.927 16.8812 12.2468 16.8822 11.4075C16.8822 10.5677 16.164 9.88697 15.2781 9.88697C14.3921 9.88697 13.6739 10.5677 13.6739 11.4075Z" fill="black"/>
<path fill-rule="evenodd" clip-rule="evenodd" d="M10.0201 17.8716H21.0833C21.5896 17.8716 22 18.2607 22 18.7407C22 19.2207 21.5896 19.6098 21.0833 19.6098H10.0201C9.61562 21.0207 8.26454 22 6.72237 22C5.18021 22 3.82913 21.0207 3.42467 19.6098H0.916667C0.410406 19.6098 0 19.2207 0 18.7407C0 18.2607 0.410406 17.8716 0.916667 17.8716H3.42467C3.82913 16.4607 5.18021 15.4814 6.72237 15.4814C8.26454 15.4814 9.61562 16.4607 10.0201 17.8716ZM5.11775 18.7407C5.11775 19.5807 5.83596 20.2616 6.72192 20.2616C7.60725 20.2602 8.32457 19.5801 8.32608 18.7407C8.32608 17.9007 7.60787 17.2198 6.72192 17.2198C5.83596 17.2198 5.11775 17.9007 5.11775 18.7407Z" fill="black"/>
</svg>
