<svg width="21" height="21" viewBox="0 0 21 21" fill="none" xmlns="http://www.w3.org/2000/svg">
<path fill-rule="evenodd" clip-rule="evenodd" d="M3.88275 0H17.1173C19.2608 0.00206725 20.9979 1.73922 21 3.88275V17.1173C20.9939 19.1489 19.42 20.8311 17.3932 20.9722C17.3465 20.9859 17.2985 20.9952 17.25 21C17.2349 20.9978 17.2198 20.9948 17.205 20.991C17.1907 20.9914 17.1769 20.9934 17.1631 20.9955C17.148 20.9977 17.1329 21 17.1173 21H3.88275C1.73922 20.9979 0.00206725 19.2608 0 17.1173V3.88275C0.00206725 1.73922 1.73922 0.00206725 3.88275 0ZM17.1173 1.5H3.88275C2.56731 1.50124 1.50124 2.56731 1.5 3.88275V10.1895L4.34475 7.34475C4.63762 7.05196 5.11238 7.05196 5.40525 7.34475L11.925 13.8645L15.0697 10.7198C15.3626 10.427 15.8374 10.427 16.1302 10.7198L19.5 14.0895V3.88275C19.4988 2.56731 18.4327 1.50124 17.1173 1.5ZM1.5 17.1173V12.3105L4.875 8.9355L15.4395 19.5H3.88275C2.56731 19.4988 1.50124 18.4327 1.5 17.1173ZM12.9855 14.925L17.52 19.4595C18.6615 19.2637 19.497 18.2755 19.5 17.1173V16.2105L15.6 12.3105L12.9855 14.925Z" fill="black"/>
<path fill-rule="evenodd" clip-rule="evenodd" d="M18.1365 5.72741C18.1365 7.30895 16.8544 8.59104 15.2728 8.59104C14.5133 8.59104 13.785 8.28934 13.2479 7.7523C12.7109 7.21527 12.4092 6.48689 12.4092 5.72741C12.4092 4.14586 13.6913 2.86377 15.2728 2.86377C16.8544 2.86377 18.1365 4.14586 18.1365 5.72741ZM16.5001 5.72741C16.5001 5.0496 15.9506 4.50013 15.2728 4.50013C14.595 4.50013 14.0455 5.0496 14.0455 5.72741C14.0455 6.40521 14.595 6.95468 15.2728 6.95468C15.9506 6.95468 16.5001 6.40521 16.5001 5.72741Z" fill="black"/>
</svg>
