<svg width="22" height="22" viewBox="0 0 22 22" fill="none" xmlns="http://www.w3.org/2000/svg">
<path d="M14.3611 0C13.7347 0 13.1166 0.0784 12.5222 0.2324C12.15 0.329 11.9263 0.7098 12.0222 1.0836C12.118 1.4588 12.4986 1.6856 12.8666 1.5876C13.3486 1.463 13.8514 1.4 14.3611 1.4C17.8069 1.4 20.6111 4.3078 20.6111 7.882C20.6111 11.9812 15.9166 17.5434 14.3583 19.2752C14.1861 19.0834 13.975 18.8426 13.7389 18.5612C13.4916 18.2658 13.0527 18.228 12.7597 18.4786C12.4666 18.7278 12.4305 19.1702 12.6777 19.4656C13.3819 20.3056 13.8694 20.797 13.8694 20.797C14 20.9258 14.1764 21 14.3611 21C14.3625 21 14.3639 21 14.3652 21C14.55 20.9986 14.7277 20.923 14.8569 20.7886C15.15 20.4876 22 13.3406 22 7.882C22 3.535 18.5736 0 14.3611 0Z" fill="black"/>
<path fill-rule="evenodd" clip-rule="evenodd" d="M0 8.8862C0 4.5378 3.36409 1 7.5 1C11.6359 1 15 4.5378 15 8.8862C15 14.335 8.27455 21.4862 7.98818 21.7886C7.86 21.923 7.68409 22 7.5 22C7.31591 22 7.14 21.923 7.01182 21.7872C6.72545 21.4862 0 14.335 0 8.8862ZM1.36364 8.8862C1.36364 12.9756 5.96727 18.535 7.5 20.2724C9.03273 18.535 13.6364 12.9756 13.6364 8.8862C13.6364 5.3106 10.8832 2.4 7.5 2.4C4.11682 2.4 1.36364 5.3106 1.36364 8.8862Z" fill="black"/>
<path fill-rule="evenodd" clip-rule="evenodd" d="M4 8.5C4 6.5708 5.5708 5 7.5 5C9.4292 5 11 6.5708 11 8.5C11 10.4292 9.4292 12 7.5 12C5.5708 12 4 10.4292 4 8.5ZM5.4 8.5C5.4 9.6578 6.3422 10.6 7.5 10.6C8.6578 10.6 9.6 9.6578 9.6 8.5C9.6 7.3422 8.6578 6.4 7.5 6.4C6.3422 6.4 5.4 7.3422 5.4 8.5Z" fill="black"/>
</svg>
