<svg width="21" height="21" viewBox="0 0 21 21" fill="none" xmlns="http://www.w3.org/2000/svg">
<path fill-rule="evenodd" clip-rule="evenodd" d="M14.25 4.875C14.25 7.56739 12.0674 9.75 9.375 9.75C6.68388 9.74693 4.50307 7.56612 4.5 4.875C4.5 2.18261 6.68261 0 9.375 0C12.0674 0 14.25 2.18261 14.25 4.875ZM12.8571 4.875C12.8571 2.95187 11.2981 1.39286 9.375 1.39286C7.45282 1.39516 5.89516 2.95282 5.89286 4.875C5.89286 6.79813 7.45187 8.35714 9.375 8.35714C11.2981 8.35714 12.8571 6.79813 12.8571 4.875Z" fill="#3A9EEE"/>
<path fill-rule="evenodd" clip-rule="evenodd" d="M0 20.3036C0.00572263 15.3058 4.03181 11.2558 9 11.25C13.9682 11.2558 17.9943 15.3058 18 20.3036C18 20.6882 17.69 21 17.3077 21H0.692308C0.508696 21 0.332605 20.9266 0.202772 20.796C0.0729394 20.6654 0 20.4883 0 20.3036ZM9 12.6387C5.06079 12.6387 1.77172 15.6607 1.41577 19.6071H16.5842C16.2283 15.6607 12.9392 12.6387 9 12.6387Z" fill="#3A9EEE"/>
<path d="M20.325 9.45H18.3V7.425C18.3 7.05221 17.9978 6.75 17.625 6.75C17.2522 6.75 16.95 7.05221 16.95 7.425V9.45H14.925C14.5522 9.45 14.25 9.75221 14.25 10.125C14.25 10.4978 14.5522 10.8 14.925 10.8H16.95V12.825C16.95 13.1978 17.2522 13.5 17.625 13.5C17.9978 13.5 18.3 13.1978 18.3 12.825V10.8H20.325C20.6978 10.8 21 10.4978 21 10.125C21 9.75221 20.6978 9.45 20.325 9.45Z" fill="#3A9EEE"/>
</svg>
