<svg width="60" height="60" viewBox="0 0 60 60" fill="none" xmlns="http://www.w3.org/2000/svg">
<circle cx="30" cy="30" r="30" fill="#3A9EEE"/>
<path fill-rule="evenodd" clip-rule="evenodd" d="M34.7424 22.8864C34.7424 26.2913 31.9822 29.0515 28.5773 29.0515C25.1741 29.0476 22.4161 26.2897 22.4122 22.8864C22.4122 19.4815 25.1724 16.7213 28.5773 16.7213C31.9822 16.7213 34.7424 19.4815 34.7424 22.8864ZM32.981 22.8864C32.981 20.4544 31.0094 18.4828 28.5773 18.4828C26.1465 18.4857 24.1766 20.4556 24.1737 22.8864C24.1737 25.3185 26.1453 27.2901 28.5773 27.2901C31.0094 27.2901 32.981 25.3185 32.981 22.8864Z" fill="white"/>
<path fill-rule="evenodd" clip-rule="evenodd" d="M16.7213 42.398C16.7286 36.0776 21.8201 30.9558 28.103 30.9485C34.386 30.9558 39.4775 36.0776 39.4848 42.398C39.4848 42.8844 39.0928 43.2787 38.6093 43.2787H17.5968C17.3646 43.2787 17.1419 43.1859 16.9777 43.0207C16.8136 42.8556 16.7213 42.6316 16.7213 42.398ZM28.103 32.7046C23.1214 32.7046 18.9619 36.5264 18.5117 41.5172H37.6943C37.2442 36.5264 33.0847 32.7046 28.103 32.7046Z" fill="white"/>
<path d="M42.4251 28.6721H39.8642V26.1113C39.8642 25.6398 39.482 25.2576 39.0106 25.2576C38.5391 25.2576 38.157 25.6398 38.157 26.1113V28.6721H35.5961C35.1246 28.6721 34.7424 29.0543 34.7424 29.5258C34.7424 29.9972 35.1246 30.3794 35.5961 30.3794H38.157V32.9403C38.157 33.4117 38.5391 33.7939 39.0106 33.7939C39.482 33.7939 39.8642 33.4117 39.8642 32.9403V30.3794H42.4251C42.8965 30.3794 43.2787 29.9972 43.2787 29.5258C43.2787 29.0543 42.8965 28.6721 42.4251 28.6721Z" fill="white"/>
</svg>
