<svg height="396pt" viewBox="0 -6 396.90645 396" width="396pt" xmlns="http://www.w3.org/2000/svg"><path d="m42.667969 128.453125c-23.554688.03125-42.636719 19.117187-42.667969 42.667969v170.664062c0 23.566406 19.101562 42.667969 42.667969 42.667969 23.5625 0 42.664062-19.101563 42.664062-42.667969v-170.664062c-.027343-23.550782-19.113281-42.636719-42.664062-42.667969zm0 0"/><path d="m384.523438 147.578125c-10.117188-12.132813-25.101563-19.140625-40.898438-19.125h-62.792969c9.644531-39.5 4.875-79.230469-13.121093-104.207031-9.765626-14.644532-26.113282-23.539063-43.710938-23.792969-24.894531 0-24.894531 23.0625-24.894531 39.894531 0 33.1875-7.105469 88.105469-84.355469 109.75-4.71875 1.238282-8.03125 5.476563-8.082031 10.355469v170.730469c.035156 29.40625 23.863281 53.234375 53.269531 53.269531h156.519531c25.742188 0 47.796875-18.410156 52.398438-43.734375l27.1875-149.476562c2.835937-15.542969-1.382813-31.542969-11.519531-43.664063zm0 0"/></svg>