<svg width="23" height="19" viewBox="0 0 23 19" fill="none" xmlns="http://www.w3.org/2000/svg">
<path d="M22.1154 8.63635H3.02012L10.3562 1.4742C10.7019 1.13674 10.7019 0.590269 10.3562 0.253019C10.0106 -0.0842316 9.45082 -0.0844476 9.10538 0.253019L0.259247 8.88939C-0.0864156 9.22686 -0.0864156 9.77333 0.259247 10.1106L9.10538 18.747C9.2781 18.9156 9.50456 19 9.7308 19C9.95704 19 10.1835 18.9156 10.3562 18.747C10.7019 18.4095 10.7019 17.863 10.3562 17.5258L3.02012 10.3636H22.1154C22.6039 10.3636 23 9.97693 23 9.49999C23 9.02304 22.6039 8.63635 22.1154 8.63635Z" fill="black"/>
</svg>
