<?xml version="1.0" encoding="UTF-8"?>
<svg width="20px" height="19px" viewBox="0 0 20 19" version="1.1" xmlns="http://www.w3.org/2000/svg" xmlns:xlink="http://www.w3.org/1999/xlink">
    <title>like</title>
    <g id="Page-1" stroke="none" stroke-width="1" fill="none" fill-rule="evenodd">
        <g id="Hangout-Chat" transform="translate(-101.000000, -366.000000)" fill-rule="nonzero">
            <g id="like" transform="translate(101.120000, 366.000000)">
                <path d="M3.16666667,17.6112246 L3.16666667,9.83283833 C3.16594247,9.06641928 2.6174556,8.44530662 1.94061566,8.44444444 L0,8.44444444 L0,19 L1.94048088,19 C2.61749718,18.9992006 3.1661095,18.3778434 3.16666667,17.6112246 L3.16666667,17.6112246 Z" id="Path" fill="#FF7043"></path>
                <path d="M4.40634012,10.0366297 L4.40634012,17.550593 C4.40655466,17.8347001 4.34375032,18.1155012 4.22222222,18.3737925 C6.58454141,18.9899953 14.3238579,19.6742569 16.6462741,17.6325307 C17.1754558,17.1671037 17.3726842,16.5964342 17.2486304,15.8883855 C17.2221794,15.738054 17.3096936,15.5907579 17.4567206,15.5381463 C17.8192778,15.4082631 18.0570951,15.2136239 18.1842741,14.9425392 C18.381007,14.5232022 18.3221243,13.9008763 18.00896,13.0931144 C17.9545266,12.953289 18.0081255,12.7954515 18.1374347,12.7147833 C19.131961,12.0942016 19.2629511,11.2868479 18.5486987,10.1743801 C18.5051809,10.1060169 18.4897983,10.0241677 18.5056324,9.94522906 C18.6625385,9.17505904 18.5487749,8.6241318 18.1577102,8.26123825 C17.5736475,7.71903173 15.9938008,7.2860755 11.7869488,8.30398837 C11.6550954,8.33593523 11.5167494,8.28462789 11.4401318,8.17536693 C10.8684554,7.36048 10.9312636,6.1383537 11.6319864,4.43974177 C12.1285445,2.60697908 11.6270318,0.965738389 10.8721904,0.289418231 C10.7100248,0.143763547 10.3885903,-0.0830124465 10.0604099,0.0309507471 C9.63527327,0.179388642 9.3105611,0.828804431 9.16905214,1.81268791 C8.70789987,5.0258859 7.50467357,6.22626605 6.34138839,7.38742148 C5.60293498,8.1247125 4.90468947,8.82162841 4.40634012,10.0366297 L4.40634012,10.0366297 Z" id="Path" fill="#FFBA31"></path>
            </g>
        </g>
    </g>
</svg>