<?xml version="1.0" encoding="iso-8859-1"?>
<!-- Generator: Adobe Illustrator 19.0.0, SVG Export Plug-In . SVG Version: 6.00 Build 0)  -->
<svg version="1.1" id="Capa_1" xmlns="http://www.w3.org/2000/svg" xmlns:xlink="http://www.w3.org/1999/xlink" x="0px" y="0px"
	 viewBox="0 0 512 512" style="enable-background:new 0 0 512 512;" xml:space="preserve">
<g>
	<g>
		<path d="M176,32C78.944,32,0,112.864,0,212.256c0,124.512,157.824,288,164.544,294.88C167.552,510.24,171.68,512,176,512
			s8.448-1.76,11.456-4.832C194.176,500.256,352,336.768,352,212.256C352,112.864,273.056,32,176,32z M176,288
			c-44.096,0-80-35.904-80-80s35.904-80,80-80s80,35.904,80,80S220.096,288,176,288z"/>
	</g>
</g>
<g>
	<g>
		<path d="M336,0c-27.36,0-53.184,6.624-76.32,18.08c37.44,16.864,69.024,44.64,91.04,79.392C387.808,104.416,416,136.928,416,176
			c0,27.168-13.696,51.168-34.464,65.632c-10.144,67.456-52.256,138.816-92.448,193.856c19.232,22.784,33.568,37.696,35.456,39.68
			C327.552,478.24,331.68,480,336,480s8.448-1.76,11.456-4.832C354.176,468.256,512,304.768,512,180.256C512,80.864,433.056,0,336,0
			z"/>
	</g>
</g>
<g>
</g>
<g>
</g>
<g>
</g>
<g>
</g>
<g>
</g>
<g>
</g>
<g>
</g>
<g>
</g>
<g>
</g>
<g>
</g>
<g>
</g>
<g>
</g>
<g>
</g>
<g>
</g>
<g>
</g>
</svg>
