<svg width="90" height="90" viewBox="0 0 90 90" fill="none" xmlns="http://www.w3.org/2000/svg">
<mask id="mask0_0_1089" style="mask-type:alpha" maskUnits="userSpaceOnUse" x="16" y="51" width="58" height="26">
<path fill-rule="evenodd" clip-rule="evenodd" d="M23.9044 67.607C29.6741 73.3752 37.3455 76.5517 45.5055 76.5517C53.6652 76.5517 61.3367 73.3752 67.1064 67.607C69.596 65.1183 71.6166 62.2571 73.1131 59.103C73.9332 57.3753 73.1966 55.31 71.4679 54.4906C69.7399 53.671 67.6736 54.4074 66.854 56.1353C65.6982 58.5711 64.135 60.7831 62.2078 62.7097C57.7465 67.1699 51.8146 69.6261 45.5055 69.6261C39.1961 69.6261 33.2642 67.1699 28.8029 62.7097C26.315 60.2228 24.4557 57.2983 23.2762 54.017C22.6294 52.2172 20.6455 51.2819 18.8451 51.9294C17.0447 52.5762 16.1099 54.5595 16.7567 56.3594C18.2842 60.6086 20.689 64.3928 23.9044 67.607Z" fill="white"/>
</mask>
<g mask="url(#mask0_0_1089)">
<path fill-rule="evenodd" clip-rule="evenodd" d="M23.9044 67.607C29.6741 73.3752 37.3455 76.5517 45.5055 76.5517C53.6652 76.5517 61.3367 73.3752 67.1064 67.607C69.596 65.1183 71.6166 62.2571 73.1131 59.103C73.9332 57.3753 73.1966 55.31 71.4679 54.4906C69.7399 53.671 67.6736 54.4074 66.854 56.1353C65.6982 58.5711 64.135 60.7831 62.2078 62.7097C57.7465 67.1699 51.8146 69.6261 45.5055 69.6261C39.1961 69.6261 33.2642 67.1699 28.8029 62.7097C26.315 60.2228 24.4557 57.2983 23.2762 54.017C22.6294 52.2172 20.6455 51.2819 18.8451 51.9294C17.0447 52.5762 16.1099 54.5595 16.7567 56.3594C18.2842 60.6086 20.689 64.3928 23.9044 67.607Z" fill="#333333"/>
</g>
<mask id="mask1_0_1089" style="mask-type:alpha" maskUnits="userSpaceOnUse" x="16" y="13" width="58" height="26">
<path fill-rule="evenodd" clip-rule="evenodd" d="M66.0956 22.3841C54.1846 10.4696 34.8042 10.4696 22.8939 22.3841C20.4043 24.874 18.3832 27.7371 16.8866 30.8931C16.0669 32.6221 16.8037 34.6885 18.5322 35.5084C20.261 36.329 22.3264 35.5919 23.1463 33.8628C24.3016 31.4251 25.8648 29.212 27.7924 27.2841C37.0018 18.0718 51.9868 18.0711 61.1971 27.2841C63.685 29.7727 65.5445 32.6993 66.7237 35.9819C67.2316 37.3957 68.5635 38.2758 69.9838 38.2758C70.3724 38.2758 70.7681 38.2099 71.155 38.071C72.955 37.4238 73.8901 35.4393 73.2433 33.6383C71.716 29.3871 69.311 25.6006 66.0956 22.3841Z" fill="white"/>
</mask>
<g mask="url(#mask1_0_1089)">
<path fill-rule="evenodd" clip-rule="evenodd" d="M66.0956 22.3841C54.1846 10.4696 34.8042 10.4696 22.8939 22.3841C20.4043 24.874 18.3832 27.7371 16.8866 30.8931C16.0669 32.6221 16.8037 34.6885 18.5322 35.5084C20.261 36.329 22.3264 35.5919 23.1463 33.8628C24.3016 31.4251 25.8648 29.212 27.7924 27.2841C37.0018 18.0718 51.9868 18.0711 61.1971 27.2841C63.685 29.7727 65.5445 32.6993 66.7237 35.9819C67.2316 37.3957 68.5635 38.2758 69.9838 38.2758C70.3724 38.2758 70.7681 38.2099 71.155 38.071C72.955 37.4238 73.8901 35.4393 73.2433 33.6383C71.716 29.3871 69.311 25.6006 66.0956 22.3841Z" fill="#333333"/>
</g>
<mask id="mask2_0_1089" style="mask-type:alpha" maskUnits="userSpaceOnUse" x="20" y="0" width="70" height="70">
<path fill-rule="evenodd" clip-rule="evenodd" d="M22.4237 6.13512C40.0246 -4.16627 62.4009 -1.27657 76.8391 13.1609C91.2768 27.5987 94.1661 49.9751 83.8649 67.576C83.2132 68.6897 82.0418 69.3103 80.8382 69.3103C80.2373 69.3103 79.6285 69.1556 79.0725 68.8302C77.4024 67.8529 76.8413 65.7072 77.8186 64.0375C86.5112 49.1849 84.0711 30.3008 71.8853 18.115C59.6989 5.92889 40.8146 3.48925 25.9624 12.1814C24.2923 13.1583 22.1471 12.5972 21.17 10.9275C20.1927 9.25788 20.754 7.11242 22.4237 6.13512Z" fill="white"/>
</mask>
<g mask="url(#mask2_0_1089)">
<path fill-rule="evenodd" clip-rule="evenodd" d="M-12.6989 136.527H102.744V0H-12.6989V136.527Z" fill="#333333"/>
</g>
<mask id="mask3_0_1089" style="mask-type:alpha" maskUnits="userSpaceOnUse" x="13" y="39" width="8" height="8">
<path fill-rule="evenodd" clip-rule="evenodd" d="M20.6897 42.931C20.6897 40.9313 19.0688 39.3103 17.0691 39.3103C15.0692 39.3103 13.4483 40.9313 13.4483 42.931C13.4483 44.9306 15.0692 46.5517 17.0691 46.5517C19.0688 46.5517 20.6897 44.9306 20.6897 42.931Z" fill="white"/>
</mask>
<g mask="url(#mask3_0_1089)">
<path fill-rule="evenodd" clip-rule="evenodd" d="M20.6897 42.931C20.6897 40.9313 19.0688 39.3103 17.0691 39.3103C15.0692 39.3103 13.4483 40.9313 13.4483 42.931C13.4483 44.9306 15.0692 46.5517 17.0691 46.5517C19.0688 46.5517 20.6897 44.9306 20.6897 42.931Z" fill="#444343"/>
</g>
<mask id="mask4_0_1089" style="mask-type:alpha" maskUnits="userSpaceOnUse" x="69" y="43" width="8" height="8">
<path fill-rule="evenodd" clip-rule="evenodd" d="M76.5517 47.0689C76.5517 45.0693 74.9307 43.4482 72.9312 43.4482C70.9315 43.4482 69.3104 45.0693 69.3104 47.0689C69.3104 49.0686 70.9315 50.6896 72.9312 50.6896C74.9307 50.6896 76.5517 49.0686 76.5517 47.0689Z" fill="white"/>
</mask>
<g mask="url(#mask4_0_1089)">
<path fill-rule="evenodd" clip-rule="evenodd" d="M76.5517 47.0689C76.5517 45.0693 74.9307 43.4482 72.9312 43.4482C70.9315 43.4482 69.3104 45.0693 69.3104 47.0689C69.3104 49.0686 70.9315 50.6896 72.9312 50.6896C74.9307 50.6896 76.5517 49.0686 76.5517 47.0689Z" fill="#444343"/>
</g>
<mask id="mask5_0_1089" style="mask-type:alpha" maskUnits="userSpaceOnUse" x="12" y="12" width="8" height="8">
<path fill-rule="evenodd" clip-rule="evenodd" d="M16.0345 19.6552C18.0342 19.6552 19.6552 18.0342 19.6552 16.0347C19.6552 14.0349 18.0342 12.4138 16.0345 12.4138C14.0349 12.4138 12.4138 14.0349 12.4138 16.0347C12.4138 18.0342 14.0349 19.6552 16.0345 19.6552Z" fill="white"/>
</mask>
<g mask="url(#mask5_0_1089)">
<path fill-rule="evenodd" clip-rule="evenodd" d="M16.0345 19.6552C18.0342 19.6552 19.6552 18.0342 19.6552 16.0347C19.6552 14.0349 18.0342 12.4138 16.0345 12.4138C14.0349 12.4138 12.4138 14.0349 12.4138 16.0347C12.4138 18.0342 14.0349 19.6552 16.0345 19.6552Z" fill="#444343"/>
</g>
<mask id="mask6_0_1089" style="mask-type:alpha" maskUnits="userSpaceOnUse" x="70" y="70" width="8" height="8">
<path fill-rule="evenodd" clip-rule="evenodd" d="M73.9655 70.3447C71.9658 70.3447 70.3448 71.9657 70.3448 73.9655C70.3448 75.9653 71.9658 77.5861 73.9655 77.5861C75.9653 77.5861 77.5862 75.9653 77.5862 73.9655C77.5862 71.9657 75.9653 70.3447 73.9655 70.3447Z" fill="white"/>
</mask>
<g mask="url(#mask6_0_1089)">
<path fill-rule="evenodd" clip-rule="evenodd" d="M73.9655 70.3447C71.9658 70.3447 70.3448 71.9657 70.3448 73.9655C70.3448 75.9653 71.9658 77.5861 73.9655 77.5861C75.9653 77.5861 77.5862 75.9653 77.5862 73.9655C77.5862 71.9657 75.9653 70.3447 73.9655 70.3447Z" fill="#444343"/>
</g>
<mask id="mask7_0_1089" style="mask-type:alpha" maskUnits="userSpaceOnUse" x="0" y="20" width="70" height="70">
<path fill-rule="evenodd" clip-rule="evenodd" d="M63.9759 77.8608C58.059 81.3132 51.5073 82.9949 44.9954 82.9947C35.2061 82.9943 25.5097 79.1912 18.2184 71.8853C6.05718 59.6995 3.62249 40.8153 12.2973 25.9625C13.2726 24.2929 12.7122 22.1474 11.0459 21.1701C9.37987 20.1926 7.2381 20.7543 6.26322 22.424C-0.667408 34.2901 -1.61465 48.3263 2.91859 60.6375C4.20286 64.1254 4.44027 67.9135 3.56193 71.5254L0.0849858 85.8235C-0.429775 87.9388 1.47589 89.8483 3.58716 89.3327L17.1493 86.0214C20.926 85.0993 24.8839 85.422 28.4993 86.8531C33.7639 88.9368 39.3675 90.0003 44.9987 90C52.7464 89.9998 60.5455 87.99 67.5797 83.8647C69.2714 82.8727 69.8231 80.6764 68.7854 78.9967C67.7835 77.3745 65.6211 76.9007 63.9759 77.8608Z" fill="white"/>
</mask>
<g mask="url(#mask7_0_1089)">
<path fill-rule="evenodd" clip-rule="evenodd" d="M44.9954 82.9947C35.2061 82.9943 25.5097 79.1912 18.2184 71.8853C6.05718 59.6995 3.62249 40.8153 12.2973 25.9625C13.2726 24.2929 12.7122 22.1474 11.0459 21.1701C9.37987 20.1926 7.2381 20.7543 6.26322 22.424C-0.667408 34.2901 -1.61465 48.3263 2.91859 60.6375C4.20286 64.1254 4.44027 67.9135 3.56193 71.5254L0.0849858 85.8235C-0.429775 87.9388 1.47589 89.8483 3.58716 89.3327L17.1493 86.0214C20.926 85.0993 24.8839 85.422 28.4993 86.8531C33.7639 88.9368 39.3675 90.0003 44.9987 90C52.7464 89.9998 60.5455 87.99 67.5797 83.8647C69.2714 82.8727 69.8231 80.6764 68.7854 78.9967C67.7835 77.3745 65.6211 76.9007 63.9759 77.8608C58.059 81.3132 51.5073 82.9949 44.9954 82.9947Z" fill="#333333"/>
</g>
<mask id="mask8_0_1089" style="mask-type:alpha" maskUnits="userSpaceOnUse" x="27" y="27" width="36" height="36">
<path fill-rule="evenodd" clip-rule="evenodd" d="M35.0179 45.0001C35.0179 39.4959 39.4959 35.0181 45.0001 35.0181C50.5041 35.0181 54.9821 39.4959 54.9821 45.0001C54.9821 50.5041 50.5041 54.9822 45.0001 54.9822C39.4959 54.9822 35.0179 50.5041 35.0179 45.0001ZM62.069 45.0001C62.069 35.5881 54.4118 27.9312 45.0001 27.9312C35.5882 27.9312 27.931 35.5881 27.931 45.0001C27.931 54.4119 35.5882 62.0691 45.0001 62.0691C54.4118 62.0691 62.069 54.4119 62.069 45.0001Z" fill="white"/>
</mask>
<g mask="url(#mask8_0_1089)">
<path fill-rule="evenodd" clip-rule="evenodd" d="M35.0179 45.0001C35.0179 39.4959 39.4959 35.0181 45.0001 35.0181C50.5041 35.0181 54.9821 39.4959 54.9821 45.0001C54.9821 50.5041 50.5041 54.9822 45.0001 54.9822C39.4959 54.9822 35.0179 50.5041 35.0179 45.0001ZM62.069 45.0001C62.069 35.5881 54.4118 27.9312 45.0001 27.9312C35.5882 27.9312 27.931 35.5881 27.931 45.0001C27.931 54.4119 35.5882 62.0691 45.0001 62.0691C54.4118 62.0691 62.069 54.4119 62.069 45.0001Z" fill="#333333"/>
</g>
</svg>
