<svg width="71" height="81" viewBox="0 0 71 81" fill="none" xmlns="http://www.w3.org/2000/svg">
<g filter="url(#filter0_d_132_48)">
<rect x="4" width="63" height="58.275" rx="10" fill="black"/>
<path d="M23.6875 57.0625L33.925 72.025L45.7375 57.0625H23.6875Z" fill="black"/>
<path d="M23.6875 57.0625V56.5625H22.7396L23.2748 57.3448L23.6875 57.0625ZM33.925 72.025L33.5123 72.3073L33.8962 72.8684L34.3174 72.3348L33.925 72.025ZM45.7375 57.0625L46.1299 57.3723L46.7693 56.5625H45.7375V57.0625ZM23.2748 57.3448L33.5123 72.3073L34.3377 71.7427L24.1002 56.7802L23.2748 57.3448ZM34.3174 72.3348L46.1299 57.3723L45.3451 56.7527L33.5326 71.7152L34.3174 72.3348ZM45.7375 56.5625H23.6875V57.5625H45.7375V56.5625Z" fill="black"/>
</g>
<defs>
<filter id="filter0_d_132_48" x="0" y="0" width="71" height="80.8684" filterUnits="userSpaceOnUse" color-interpolation-filters="sRGB">
<feFlood flood-opacity="0" result="BackgroundImageFix"/>
<feColorMatrix in="SourceAlpha" type="matrix" values="0 0 0 0 0 0 0 0 0 0 0 0 0 0 0 0 0 0 127 0" result="hardAlpha"/>
<feOffset dy="4"/>
<feGaussianBlur stdDeviation="2"/>
<feComposite in2="hardAlpha" operator="out"/>
<feColorMatrix type="matrix" values="0 0 0 0 0 0 0 0 0 0 0 0 0 0 0 0 0 0 0.25 0"/>
<feBlend mode="normal" in2="BackgroundImageFix" result="effect1_dropShadow_132_48"/>
<feBlend mode="normal" in="SourceGraphic" in2="effect1_dropShadow_132_48" result="shape"/>
</filter>
</defs>
</svg>
