<svg width="30" height="30" viewBox="0 0 30 30" fill="none" xmlns="http://www.w3.org/2000/svg">
<path fill-rule="evenodd" clip-rule="evenodd" d="M15 0C6.71573 0 0 6.71573 0 15C0 23.2843 6.71573 30 15 30C23.2843 30 30 23.2843 30 15C29.9904 6.71973 23.2803 0.00964345 15 0ZM21.6667 22.5C21.6667 22.9602 21.2936 23.3333 20.8333 23.3333H7.5C7.03976 23.3333 6.66667 22.9602 6.66667 22.5V9.16667C6.66667 8.70643 7.03976 8.33333 7.5 8.33333H15.3433C15.8036 8.33333 16.1767 8.70643 16.1767 9.16667C16.1767 9.6269 15.8036 10 15.3433 10H8.33333V21.6667H20V14.6567C20 14.1964 20.3731 13.8233 20.8333 13.8233C21.2936 13.8233 21.6667 14.1964 21.6667 14.6567V22.5ZM17.5 9.58333C17.5 11.1942 18.8058 12.5 20.4167 12.5C22.0275 12.5 23.3333 11.1942 23.3333 9.58333C23.3333 7.9725 22.0275 6.66667 20.4167 6.66667C18.8058 6.66667 17.5 7.9725 17.5 9.58333Z" fill="#EA2D40"/>
<ellipse cx="20.5" cy="10" rx="1.5" ry="1" fill="#EA2D40"/>
</svg>
