<svg width="318" height="318" viewBox="0 0 318 318" fill="none" xmlns="http://www.w3.org/2000/svg">
<circle cx="159" cy="159" r="158.5" stroke="#D1D1D1" stroke-opacity="0.2"/>
<circle cx="159" cy="159" r="124.5" stroke="#D1D1D1" stroke-opacity="0.4"/>
<circle cx="159" cy="159" r="89.5" stroke="#D1D1D1" stroke-opacity="0.6"/>
<mask id="mask0_0_1" style="mask-type:alpha" maskUnits="userSpaceOnUse" x="130" y="165" width="58" height="26">
<path fill-rule="evenodd" clip-rule="evenodd" d="M137.904 181.607C143.674 187.375 151.346 190.552 159.505 190.552C167.665 190.552 175.337 187.375 181.106 181.607C183.596 179.118 185.617 176.257 187.113 173.103C187.933 171.375 187.197 169.31 185.468 168.491C183.74 167.671 181.674 168.407 180.854 170.135C179.698 172.571 178.135 174.783 176.208 176.71C171.747 181.17 165.815 183.626 159.505 183.626C153.196 183.626 147.264 181.17 142.803 176.71C140.315 174.223 138.456 171.298 137.276 168.017C136.629 166.217 134.646 165.282 132.845 165.929C131.045 166.576 130.11 168.56 130.757 170.359C132.284 174.609 134.689 178.393 137.904 181.607" fill="white"/>
</mask>
<g mask="url(#mask0_0_1)">
<path fill-rule="evenodd" clip-rule="evenodd" d="M137.904 181.607C143.674 187.375 151.346 190.552 159.505 190.552C167.665 190.552 175.337 187.375 181.106 181.607C183.596 179.118 185.617 176.257 187.113 173.103C187.933 171.375 187.197 169.31 185.468 168.491C183.74 167.671 181.674 168.407 180.854 170.135C179.698 172.571 178.135 174.783 176.208 176.71C171.747 181.17 165.815 183.626 159.505 183.626C153.196 183.626 147.264 181.17 142.803 176.71C140.315 174.223 138.456 171.298 137.276 168.017C136.629 166.217 134.646 165.282 132.845 165.929C131.045 166.576 130.11 168.56 130.757 170.359C132.284 174.609 134.689 178.393 137.904 181.607" fill="#333333"/>
</g>
<mask id="mask1_0_1" style="mask-type:alpha" maskUnits="userSpaceOnUse" x="130" y="127" width="58" height="26">
<path fill-rule="evenodd" clip-rule="evenodd" d="M180.096 136.384C168.185 124.47 148.804 124.47 136.894 136.384C134.404 138.874 132.383 141.737 130.887 144.893C130.067 146.622 130.804 148.689 132.532 149.508C134.261 150.329 136.326 149.592 137.146 147.863C138.302 145.425 139.865 143.212 141.792 141.284C151.002 132.072 165.987 132.071 175.197 141.284C177.685 143.773 179.544 146.699 180.724 149.982C181.232 151.396 182.563 152.276 183.984 152.276C184.372 152.276 184.768 152.21 185.155 152.071C186.955 151.424 187.89 149.439 187.243 147.638C185.716 143.387 183.311 139.601 180.096 136.384" fill="white"/>
</mask>
<g mask="url(#mask1_0_1)">
<path fill-rule="evenodd" clip-rule="evenodd" d="M180.096 136.384C168.185 124.47 148.804 124.47 136.894 136.384C134.404 138.874 132.383 141.737 130.887 144.893C130.067 146.622 130.804 148.689 132.532 149.508C134.261 150.329 136.326 149.592 137.146 147.863C138.302 145.425 139.865 143.212 141.792 141.284C151.002 132.072 165.987 132.071 175.197 141.284C177.685 143.773 179.544 146.699 180.724 149.982C181.232 151.396 182.563 152.276 183.984 152.276C184.372 152.276 184.768 152.21 185.155 152.071C186.955 151.424 187.89 149.439 187.243 147.638C185.716 143.387 183.311 139.601 180.096 136.384" fill="#333333"/>
</g>
<mask id="mask2_0_1" style="mask-type:alpha" maskUnits="userSpaceOnUse" x="134" y="114" width="70" height="70">
<path fill-rule="evenodd" clip-rule="evenodd" d="M136.424 120.135C154.025 109.834 176.401 112.723 190.839 127.161C205.277 141.599 208.166 163.975 197.865 181.576C197.213 182.69 196.042 183.31 194.838 183.31C194.237 183.31 193.629 183.156 193.072 182.83C191.402 181.853 190.841 179.707 191.819 178.038C200.511 163.185 198.071 144.301 185.885 132.115C173.699 119.929 154.815 117.489 139.962 126.181C138.292 127.158 136.147 126.597 135.17 124.928C134.193 123.258 134.754 121.112 136.424 120.135Z" fill="white"/>
</mask>
<g mask="url(#mask2_0_1)">
<path fill-rule="evenodd" clip-rule="evenodd" d="M101.301 250.527H216.744V114H101.301V250.527Z" fill="#333333"/>
</g>
<mask id="mask3_0_1" style="mask-type:alpha" maskUnits="userSpaceOnUse" x="127" y="153" width="8" height="8">
<path fill-rule="evenodd" clip-rule="evenodd" d="M134.69 156.931C134.69 154.931 133.069 153.31 131.069 153.31C129.069 153.31 127.448 154.931 127.448 156.931C127.448 158.931 129.069 160.552 131.069 160.552C133.069 160.552 134.69 158.931 134.69 156.931" fill="white"/>
</mask>
<g mask="url(#mask3_0_1)">
<path fill-rule="evenodd" clip-rule="evenodd" d="M134.69 156.931C134.69 154.931 133.069 153.31 131.069 153.31C129.069 153.31 127.448 154.931 127.448 156.931C127.448 158.931 129.069 160.552 131.069 160.552C133.069 160.552 134.69 158.931 134.69 156.931" fill="#444343"/>
</g>
<mask id="mask4_0_1" style="mask-type:alpha" maskUnits="userSpaceOnUse" x="183" y="157" width="8" height="8">
<path fill-rule="evenodd" clip-rule="evenodd" d="M190.552 161.069C190.552 159.069 188.931 157.448 186.931 157.448C184.931 157.448 183.31 159.069 183.31 161.069C183.31 163.069 184.931 164.69 186.931 164.69C188.931 164.69 190.552 163.069 190.552 161.069" fill="white"/>
</mask>
<g mask="url(#mask4_0_1)">
<path fill-rule="evenodd" clip-rule="evenodd" d="M190.552 161.069C190.552 159.069 188.931 157.448 186.931 157.448C184.931 157.448 183.31 159.069 183.31 161.069C183.31 163.069 184.931 164.69 186.931 164.69C188.931 164.69 190.552 163.069 190.552 161.069" fill="#444343"/>
</g>
<mask id="mask5_0_1" style="mask-type:alpha" maskUnits="userSpaceOnUse" x="126" y="126" width="8" height="8">
<path fill-rule="evenodd" clip-rule="evenodd" d="M130.035 133.655C132.034 133.655 133.655 132.034 133.655 130.035C133.655 128.035 132.034 126.414 130.035 126.414C128.035 126.414 126.414 128.035 126.414 130.035C126.414 132.034 128.035 133.655 130.035 133.655" fill="white"/>
</mask>
<g mask="url(#mask5_0_1)">
<path fill-rule="evenodd" clip-rule="evenodd" d="M130.035 133.655C132.034 133.655 133.655 132.034 133.655 130.035C133.655 128.035 132.034 126.414 130.035 126.414C128.035 126.414 126.414 128.035 126.414 130.035C126.414 132.034 128.035 133.655 130.035 133.655" fill="#444343"/>
</g>
<mask id="mask6_0_1" style="mask-type:alpha" maskUnits="userSpaceOnUse" x="184" y="184" width="8" height="8">
<path fill-rule="evenodd" clip-rule="evenodd" d="M187.966 184.345C185.966 184.345 184.345 185.966 184.345 187.966C184.345 189.965 185.966 191.586 187.966 191.586C189.965 191.586 191.586 189.965 191.586 187.966C191.586 185.966 189.965 184.345 187.966 184.345" fill="white"/>
</mask>
<g mask="url(#mask6_0_1)">
<path fill-rule="evenodd" clip-rule="evenodd" d="M187.966 184.345C185.966 184.345 184.345 185.966 184.345 187.966C184.345 189.965 185.966 191.586 187.966 191.586C189.965 191.586 191.586 189.965 191.586 187.966C191.586 185.966 189.965 184.345 187.966 184.345" fill="#444343"/>
</g>
<mask id="mask7_0_1" style="mask-type:alpha" maskUnits="userSpaceOnUse" x="114" y="134" width="70" height="70">
<path fill-rule="evenodd" clip-rule="evenodd" d="M177.976 191.861C172.059 195.313 165.507 196.995 158.995 196.995C149.206 196.994 139.51 193.191 132.218 185.885C120.057 173.7 117.622 154.815 126.297 139.963C127.273 138.293 126.712 136.147 125.046 135.17C123.38 134.193 121.238 134.754 120.263 136.424C113.333 148.29 112.385 162.326 116.919 174.637C118.203 178.125 118.44 181.913 117.562 185.525L114.085 199.823C113.57 201.939 115.476 203.848 117.587 203.333L131.149 200.021C134.926 199.099 138.884 199.422 142.499 200.853C147.764 202.937 153.367 204 158.999 204C166.746 204 174.546 201.99 181.58 197.865C183.271 196.873 183.823 194.676 182.785 192.997C181.784 191.374 179.621 190.901 177.976 191.861" fill="white"/>
</mask>
<g mask="url(#mask7_0_1)">
<path fill-rule="evenodd" clip-rule="evenodd" d="M158.995 196.995C149.206 196.994 139.51 193.191 132.218 185.885C120.057 173.7 117.622 154.815 126.297 139.963C127.273 138.293 126.712 136.147 125.046 135.17C123.38 134.193 121.238 134.754 120.263 136.424C113.333 148.29 112.385 162.326 116.919 174.637C118.203 178.125 118.44 181.913 117.562 185.525L114.085 199.823C113.57 201.939 115.476 203.848 117.587 203.333L131.149 200.021C134.926 199.099 138.884 199.422 142.499 200.853C147.764 202.937 153.367 204 158.999 204C166.746 204 174.546 201.99 181.58 197.865C183.271 196.873 183.823 194.676 182.785 192.997C181.784 191.374 179.621 190.901 177.976 191.861C172.059 195.313 165.507 196.995 158.995 196.995Z" fill="#333333"/>
</g>
<mask id="mask8_0_1" style="mask-type:alpha" maskUnits="userSpaceOnUse" x="141" y="141" width="36" height="36">
<path fill-rule="evenodd" clip-rule="evenodd" d="M149.018 159C149.018 153.496 153.496 149.018 159 149.018C164.504 149.018 168.982 153.496 168.982 159C168.982 164.504 164.504 168.982 159 168.982C153.496 168.982 149.018 164.504 149.018 159ZM176.069 159C176.069 149.588 168.412 141.931 159 141.931C149.588 141.931 141.931 149.588 141.931 159C141.931 168.412 149.588 176.069 159 176.069C168.412 176.069 176.069 168.412 176.069 159V159Z" fill="white"/>
</mask>
<g mask="url(#mask8_0_1)">
<path fill-rule="evenodd" clip-rule="evenodd" d="M149.018 159C149.018 153.496 153.496 149.018 159 149.018C164.504 149.018 168.982 153.496 168.982 159C168.982 164.504 164.504 168.982 159 168.982C153.496 168.982 149.018 164.504 149.018 159ZM176.069 159C176.069 149.588 168.412 141.931 159 141.931C149.588 141.931 141.931 149.588 141.931 159C141.931 168.412 149.588 176.069 159 176.069C168.412 176.069 176.069 168.412 176.069 159V159Z" fill="#333333"/>
</g>
</svg>
