<svg width="30" height="30" viewBox="0 0 30 30" fill="none" xmlns="http://www.w3.org/2000/svg">
<path fill-rule="evenodd" clip-rule="evenodd" d="M10.2891 7.5H20.7823C21.1391 7.50036 21.4282 7.79211 21.4285 8.15216V21.4286L15.9109 17.5302C15.6856 17.3712 15.3858 17.3712 15.1605 17.5302L9.64282 21.4286V8.15216C9.64318 7.79211 9.93229 7.50036 10.2891 7.5ZM14.2262 10.143H16.8452C17.2068 10.143 17.5 9.84716 17.5 9.48224C17.5 9.11733 17.2068 8.8215 16.8452 8.8215H14.2262C13.8645 8.8215 13.5714 9.11733 13.5714 9.48224C13.5714 9.84716 13.8645 10.143 14.2262 10.143Z" fill="#EA2D3F"/>
<path fill-rule="evenodd" clip-rule="evenodd" d="M0 15C0 6.71573 6.71573 0 15 0C23.2804 0.00936759 29.9906 6.71959 30 15C30 23.2843 23.2843 30 15 30C6.71573 30 0 23.2843 0 15ZM21.823 23.4046C22.0387 23.2922 22.1739 23.0692 22.1739 22.8261V8.46978C22.1728 7.39435 21.3013 6.52281 20.2259 6.52174H9.77413C8.6987 6.52281 7.82715 7.39435 7.82609 8.46978V22.8261C7.82591 22.9601 7.867 23.0909 7.94377 23.2007C8.15016 23.4959 8.55676 23.5679 8.85196 23.3615L15 19.0572L21.148 23.3602C21.2575 23.4369 21.388 23.4781 21.5217 23.4783C21.6266 23.478 21.7299 23.4528 21.823 23.4046Z" fill="#EA2D3F"/>
</svg>
