<?xml version="1.0" encoding="UTF-8"?>
<svg width="427px" height="495px" viewBox="0 0 427 495" version="1.1" xmlns="http://www.w3.org/2000/svg" xmlns:xlink="http://www.w3.org/1999/xlink">
    <title>Colour</title>
    <g id="Page-1" stroke="none" stroke-width="1" fill="none" fill-rule="evenodd">
        <g id="cctv" fill-rule="nonzero">
            <g id="Colour">
                <path d="M426.699686,213.284 C426.693868,299.707982 374.575002,377.599913 294.689019,410.574667 L226.251686,488.996 C223.010207,492.728232 218.309706,494.87163 213.366352,494.87163 C208.422999,494.87163 203.722498,492.728232 200.481019,488.996 L132.043686,410.574667 C33.037533,369.751029 -20.3586634,261.852275 7.23758739,158.376507 C34.8338381,54.9007385 134.868882,-12.0789957 241.055432,1.82079956 C347.241982,15.7205948 426.666763,106.191579 426.699686,213.284 Z" id="Path" fill="#D95F3D"></path>
                <path d="M326.211152,341.326667 C258.833279,400.627621 157.016382,397.531141 93.3666459,334.245344 C29.7169098,270.959546 26.0366449,169.162079 84.950268,101.445271 C143.863891,33.7284624 245.19138,23.2877412 316.67555,77.568442 C388.159721,131.849143 405.314688,232.258185 355.907152,307.193333 L326.211152,341.326667 Z" id="Path" fill="#F9F9F9"></path>
            </g>
        </g>
    </g>
</svg>