<svg width="12" height="13" viewBox="0 0 12 13" fill="none" xmlns="http://www.w3.org/2000/svg">
<g opacity="0.501651">
<path fill-rule="evenodd" clip-rule="evenodd" d="M6.126 0.0191507L11.6974 1.75246C11.8773 1.8084 12 1.97644 12 2.16672V5.40886C11.9913 7.85081 10.7394 10.1161 8.68714 11.4035L6.22457 12.9357C6.08685 13.0214 5.91315 13.0214 5.77543 12.9357L3.31286 11.4035C1.26061 10.1161 0.00873917 7.85081 0 5.40886V2.16672C-3.66088e-05 1.97644 0.122698 1.8084 0.302571 1.75246L5.874 0.0191507C5.9561 -0.00638356 6.0439 -0.00638356 6.126 0.0191507ZM8.238 10.6655C10.0376 9.53664 11.1353 7.55019 11.1429 5.40886V2.48694L6 0.88667L0.857143 2.48694V5.40886C0.864664 7.55019 1.96238 9.53664 3.762 10.6655L6 12.0578L8.238 10.6655Z" fill="black"/>
<path d="M3.78366 5.46012C3.60222 5.29146 3.31381 5.29387 3.13544 5.46554C2.95707 5.63722 2.95456 5.91481 3.1298 6.08944L4.97946 7.86969C5.16003 8.04344 5.45273 8.04344 5.63331 7.86969L8.8702 4.75425C9.04544 4.57962 9.04293 4.30203 8.86456 4.13036C8.68619 3.95868 8.39778 3.95627 8.21634 4.12493L5.30638 6.92571L3.78366 5.46012Z" fill="black"/>
</g>
</svg>
