<svg width="30" height="30" viewBox="0 0 30 30" fill="none" xmlns="http://www.w3.org/2000/svg">
<path fill-rule="evenodd" clip-rule="evenodd" d="M8.49061 15.0154V10.3L15 7.3584L21.5094 10.3V15.0154C21.5124 16.491 20.8464 17.8894 19.6966 18.822L15 22.6414L10.3035 18.82C9.15416 17.8879 8.48825 16.4904 8.49061 15.0154ZM18.064 12.9303C18.3181 12.6775 18.3181 12.2677 18.064 12.0149C17.8099 11.7622 17.3977 11.7622 17.1436 12.0149L14.3491 14.794L12.8565 13.3096C12.6043 13.0673 12.2044 13.0673 11.9521 13.3096C11.6935 13.558 11.6863 13.9678 11.936 14.225L13.8889 16.1671C14.1431 16.4198 14.5551 16.4198 14.8093 16.1671L18.064 12.9303Z" fill="#037CA9"/>
<path fill-rule="evenodd" clip-rule="evenodd" d="M0 15C0 6.71573 6.71573 0 15 0C23.2804 0.00936759 29.9906 6.71959 30 15C30 23.2843 23.2843 30 15 30C6.71573 30 0 23.2843 0 15ZM20.5317 19.7954C21.9866 18.6091 22.8294 16.8303 22.8261 14.953V9.78261C22.826 9.52696 22.6766 9.29496 22.4439 9.18913L15.27 5.92826C15.0985 5.85024 14.9015 5.85024 14.73 5.92826L7.55609 9.18913C7.32338 9.29496 7.17397 9.52696 7.17391 9.78261V14.953C7.17059 16.8303 8.01338 18.6091 9.46826 19.7954L14.5872 23.983C14.8274 24.1794 15.1726 24.1794 15.4128 23.983L20.5317 19.7954Z" fill="#037CA9"/>
</svg>
