<svg width="31" height="31" viewBox="0 0 31 31" fill="none" xmlns="http://www.w3.org/2000/svg">
<path fill-rule="evenodd" clip-rule="evenodd" d="M9.44191 23.8849C9.34506 24.132 9.3963 24.4129 9.57429 24.6104C9.58368 24.6208 9.59353 24.6318 9.60397 24.6413C9.80444 24.8383 10.1029 24.8968 10.3623 24.7899L29.6071 16.8723C29.7552 16.8114 29.8777 16.7016 29.9544 16.5611C30.1398 16.2217 30.0147 15.7958 29.675 15.6098L11.474 5.62853C11.3175 5.54262 11.1343 5.51952 10.9617 5.564C10.5872 5.66048 10.3624 6.04254 10.4596 6.41733L12.7855 15.3494L9.44191 23.8849ZM14.1987 15.2189L12.2246 7.63686L27.7173 16.1334L11.3467 22.8683L14.1735 15.6512C14.2273 15.5135 14.2361 15.3622 14.1987 15.2189Z" fill="black"/>
</svg>
