<svg width="21" height="22" viewBox="0 0 21 22" fill="none" xmlns="http://www.w3.org/2000/svg">
<path fill-rule="evenodd" clip-rule="evenodd" d="M6 11C6 13.4813 8.01875 15.5 10.5001 15.5C12.9812 15.5 15 13.4813 15 11C15 8.51871 12.9812 6.5 10.5001 6.5C8.01875 6.5 6 8.51871 6 11ZM7.5 11C7.5 9.3458 8.84568 8 10.5001 8C12.1543 8 13.5 9.3458 13.5 11C13.5 12.6542 12.1543 14 10.5001 14C8.84568 14 7.5 12.6542 7.5 11Z" fill="black"/>
<path fill-rule="evenodd" clip-rule="evenodd" d="M8.97507 22H12.0246C12.758 22 13.4062 21.4793 13.5638 20.7625L13.9508 19.0447C14.5797 18.7778 15.1793 18.4296 15.7422 18.0042L17.4165 18.5331C18.1316 18.755 18.9109 18.4516 19.2656 17.8173L20.795 15.1727C21.1553 14.5302 21.0315 13.7289 20.496 13.2248C20.4933 13.223 20.4915 13.2211 20.4896 13.2193L19.2007 12.0349C19.2391 11.6857 19.2584 11.3382 19.2584 11C19.2584 10.6618 19.2391 10.3143 19.2007 9.96506L20.496 8.77435C21.0315 8.27014 21.1544 7.46901 20.7905 6.8181L19.2703 4.19012C18.9109 3.54845 18.1335 3.24599 17.4146 3.46687L15.7432 3.99475C15.1803 3.56943 14.5807 3.22115 13.9516 2.95444L13.5657 1.23837C13.4062 0.52066 12.758 0 12.0246 0H8.97507C8.24162 0 7.59344 0.52066 7.4348 1.23569L7.04801 2.95343C6.41897 3.22031 5.81931 3.56859 5.25642 3.99391L3.58235 3.46503C2.86988 3.24599 2.08874 3.54744 1.73402 4.1819L0.204654 6.82649C-0.155611 7.46901 -0.0318849 8.27014 0.510023 8.77989L1.79815 9.96506C1.7597 10.3143 1.7404 10.6608 1.7404 11C1.7404 11.3392 1.7597 11.6857 1.79899 12.0349L0.503644 13.2256C-0.0318849 13.7299 -0.154771 14.531 0.209355 15.1819L1.72932 17.8099C2.08874 18.4516 2.86803 18.7559 3.58503 18.5331L5.25642 18.0052C5.81931 18.4306 6.41897 18.7789 7.04801 19.0456L7.43396 20.7616C7.59344 21.4793 8.24162 22 8.97507 22ZM5.83409 16.7108C5.70936 16.6081 5.5544 16.554 5.39677 16.554C5.3271 16.554 5.25743 16.5641 5.18961 16.5861L3.17424 17.2224C3.07804 17.2516 2.97346 17.2177 2.92494 17.1306L1.40481 14.5026C1.35445 14.4118 1.3709 14.2982 1.44057 14.2331L2.99192 12.8067C3.15963 12.6518 3.24038 12.4245 3.20647 12.1989C3.14587 11.7929 3.11565 11.3896 3.11565 11C3.11565 10.6104 3.14587 10.2071 3.20647 9.80107C3.24038 9.57549 3.15963 9.34721 2.99192 9.1933L1.44611 7.77332C1.37006 7.70181 1.35344 7.58818 1.39927 7.5056L2.92863 4.86201C2.97262 4.78313 3.0772 4.74838 3.17155 4.77759L5.18961 5.41473C5.40953 5.48439 5.65345 5.43773 5.83409 5.28918C6.46296 4.77121 7.15058 4.37157 7.87682 4.10385C8.0959 4.02228 8.25824 3.83714 8.30944 3.60988L8.77715 1.5363C8.79729 1.44281 8.88073 1.375 8.97507 1.375H12.0246C12.1189 1.375 12.2023 1.44281 12.2253 1.5363L12.692 3.60803C12.7433 3.8353 12.9056 4.02144 13.1247 4.10201C13.8517 4.36972 14.5385 4.76936 15.1684 5.28734C15.349 5.43588 15.591 5.48355 15.8129 5.41289L17.8281 4.77675C17.9234 4.74654 18.028 4.78128 18.0774 4.86839L19.5975 7.49654C19.6481 7.58717 19.6314 7.70097 19.5618 7.76593L18.0106 9.19229C17.8427 9.34721 17.7621 9.57465 17.796 9.80006C17.8565 10.2061 17.8868 10.6094 17.8868 10.9992C17.8868 11.3887 17.8565 11.7921 17.796 12.1981C17.7621 12.4235 17.8427 12.6518 18.0106 12.8059L19.5582 14.2285C19.6314 14.3 19.648 14.4118 19.6022 14.4934L18.0729 17.138C18.0289 17.2169 17.9261 17.2526 17.8299 17.2224L15.8121 16.5853C15.5891 16.5146 15.3472 16.5623 15.1674 16.7108C14.5375 17.2288 13.8499 17.6284 13.1238 17.8961C12.9047 17.9767 12.7424 18.1629 12.691 18.3901L12.2235 20.4637C12.2034 20.5572 12.1199 20.625 12.0254 20.625H8.97608C8.88157 20.625 8.79813 20.5572 8.77715 20.4619L8.31045 18.3901C8.25908 18.1629 8.09674 17.9767 7.87766 17.8961C7.15058 17.6284 6.46396 17.2288 5.83409 16.7108Z" fill="black"/>
</svg>
