<svg width="21" height="22" viewBox="0 0 21 22" fill="none" xmlns="http://www.w3.org/2000/svg">
<path fill-rule="evenodd" clip-rule="evenodd" d="M20.5574 13.4494C20.5583 13.4512 20.5601 13.4521 20.5611 13.4531C21.0281 13.8922 21.1346 14.5887 20.8217 15.147L19.2578 17.8475C18.9486 18.3975 18.2703 18.6615 17.6509 18.468L15.8172 17.8906C15.1959 18.3745 14.526 18.7624 13.821 19.0484L13.398 20.9275C13.2594 21.5482 12.6968 22 12.0599 22H8.93965C8.30259 22 7.74014 21.5482 7.60151 20.9256L7.17837 19.0484C6.47359 18.7624 5.8036 18.3737 5.18234 17.8906L3.35048 18.468C2.72821 18.6605 2.05099 18.3975 1.73893 17.8419L0.181495 15.1525C-0.135101 14.5887 -0.028729 13.8922 0.438435 13.4531L1.85371 12.1541C1.80598 11.7635 1.78111 11.3768 1.78111 11C1.78111 10.6232 1.80598 10.2365 1.85455 9.84589L0.44314 8.55061C-0.028729 8.10783 -0.135101 7.41127 0.178806 6.85201L1.74263 4.15152C2.05099 3.60165 2.73107 3.34032 3.34863 3.532L5.18234 4.10939C5.8036 3.62633 6.47359 3.23759 7.17837 2.95158L7.60151 1.07254C7.74014 0.451843 8.30259 0 8.93965 0H12.0599C12.6968 0 13.2594 0.451843 13.398 1.07338L13.821 2.95158C14.526 3.23759 15.1959 3.62633 15.8172 4.10939L17.6491 3.532C18.2703 3.33847 18.9486 3.60249 19.2606 4.15706L20.818 6.84663C21.1346 7.41127 21.0281 8.10783 20.5611 8.54692L19.1458 9.84589C19.1936 10.2365 19.2184 10.6232 19.2184 11C19.2184 11.3768 19.1936 11.7635 19.1458 12.1541L20.5574 13.4494ZM5.91098 11C5.91098 13.5273 7.96952 15.5834 10.4998 15.5834C13.03 15.5834 15.0886 13.5273 15.0886 11C15.0886 8.47273 13.03 6.41661 10.4998 6.41661C7.96952 6.41661 5.91098 8.47273 5.91098 11Z" fill="black"/>
</svg>
