<svg width="15" height="15" viewBox="0 0 15 15" fill="none" xmlns="http://www.w3.org/2000/svg">
<path fill-rule="evenodd" clip-rule="evenodd" d="M11.0971 10.2141L14.8247 13.9417C15.0614 14.1867 15.058 14.5762 14.8171 14.8171C14.5762 15.058 14.1867 15.0614 13.9417 14.8247L10.2141 11.0971C7.63386 13.2069 3.85255 12.9228 1.61651 10.4512C-0.619525 7.97957 -0.524744 4.18878 1.83202 1.83202C4.18878 -0.524744 7.97957 -0.619525 10.4512 1.61651C12.9228 3.85255 13.2069 7.63386 11.0971 10.2141ZM1.26897 6.26486C1.26897 9.02402 3.50571 11.2608 6.26486 11.2608C9.02273 11.2577 11.2577 9.02273 11.2608 6.26486C11.2608 3.50571 9.02402 1.26897 6.26486 1.26897C3.50571 1.26897 1.26897 3.50571 1.26897 6.26486Z" fill="black"/>
</svg>
