<svg width="30" height="30" viewBox="0 0 30 30" fill="none" xmlns="http://www.w3.org/2000/svg">
<path fill-rule="evenodd" clip-rule="evenodd" d="M5.54679 0H24.4532C27.5154 0.00295321 29.997 2.4846 30 5.54679V24.4532C29.9913 27.3556 27.7429 29.7588 24.8475 29.9604C24.7807 29.9798 24.7121 29.9931 24.6429 30C24.6212 29.9969 24.5998 29.9926 24.5786 29.9871C24.5581 29.9877 24.5384 29.9906 24.5187 29.9936C24.4972 29.9968 24.4756 30 24.4532 30H5.54679C2.4846 29.997 0.00295321 27.5154 0 24.4532V5.54679C0.00295321 2.4846 2.4846 0.00295321 5.54679 0ZM24.4532 2.14286H5.54679C3.66758 2.14463 2.14463 3.66758 2.14286 5.54679V14.5564L6.20679 10.4925C6.62518 10.0742 7.30339 10.0742 7.72179 10.4925L17.0357 19.8064L21.5282 15.3139C21.9466 14.8957 22.6248 14.8957 23.0432 15.3139L27.8571 20.1279V5.54679C27.8554 3.66758 26.3324 2.14463 24.4532 2.14286ZM2.14286 24.4532V17.5864L6.96429 12.765L22.0564 27.8571H5.54679C3.66758 27.8554 2.14463 26.3324 2.14286 24.4532ZM18.5507 21.3214L25.0286 27.7993C26.6593 27.5196 27.8528 26.1078 27.8571 24.4532V23.1579L22.2857 17.5864L18.5507 21.3214Z" fill="white"/>
</svg>
