<svg width="21" height="21" viewBox="0 0 21 21" fill="none" xmlns="http://www.w3.org/2000/svg">
<path d="M18.5937 21H2.40614C1.07874 21 0 19.9076 0 18.5638V5.71748C0 4.37348 1.07874 3.28125 2.40614 3.28125H5.4687C5.83095 3.28125 6.12495 3.57893 6.12495 3.94571C6.12495 4.31249 5.83095 4.61016 5.4687 4.61016H2.40614C1.80325 4.61016 1.3125 5.10705 1.3125 5.71748V18.5638C1.3125 19.174 1.80325 19.6711 2.40614 19.6711H18.5937C19.1966 19.6711 19.6875 19.174 19.6875 18.5638V11.0331C19.6875 10.6664 19.9815 10.3687 20.3438 10.3687C20.706 10.3687 21 10.6664 21 11.0331V18.5638C21 19.9076 19.9211 21 18.5937 21Z" fill="black"/>
<path fill-rule="evenodd" clip-rule="evenodd" d="M5.76093 13.7639C5.809 13.776 5.85723 13.7812 5.90529 13.7812C6.15379 13.7812 6.39091 13.6381 6.50386 13.414C7.73401 10.9891 10.2078 9.48234 12.9605 9.48234H14V12.2838C14 12.5476 14.1627 12.7847 14.4112 12.8838C14.657 12.9813 14.9432 12.9226 15.1287 12.7321L20.8163 6.91351C21.0612 6.6635 21.0612 6.267 20.8163 6.01699L15.1287 0.198405C14.9432 0.00789303 14.6588 -0.0514545 14.4112 0.0467215C14.1627 0.145844 14 0.382919 14 0.646668V3.44831H13.7813C9.07728 3.44831 5.25 7.21877 5.25 11.8529V13.1459C5.25 13.4458 5.46437 13.6959 5.76093 13.7639ZM6.61762 10.9649C7.06302 7.4609 10.1062 4.74133 13.7813 4.74133H14.6562C15.0185 4.74133 15.3125 4.4517 15.3125 4.09482V2.25L19.4328 6.46525L15.3125 10.6805V8.83583C15.3125 8.47896 15.0185 8.18933 14.6562 8.18933H12.9605C10.4894 8.18933 8.20826 9.21686 6.61762 10.9649Z" fill="black"/>
</svg>
