<svg id="Capa_1" enable-background="new 0 0 512 512" height="512" viewBox="0 0 512 512" width="512" xmlns="http://www.w3.org/2000/svg"><g><g id="Page-1_73_"><g id="_x30_74---Send-Mobile-Key"><path id="Shape_270_" d="m375.467 0h-238.934c-18.851 0-34.133 15.282-34.133 34.133v42.667h-17.067c-18.851 0-34.133 15.282-34.133 34.133v221.867c0 18.851 15.282 34.133 34.133 34.133h17.067v110.933c0 18.851 15.282 34.133 34.133 34.133h238.933c18.851 0 34.133-15.282 34.133-34.133v-110.933h17.067c18.851 0 34.133-15.282 34.133-34.133v-221.867c0-18.851-15.282-34.133-34.133-34.133h-17.066v-42.667c0-18.851-15.282-34.133-34.133-34.133zm-53.829 17.067-10.94 11.674c-3.233 3.436-7.74 5.387-12.459 5.393h-84.48c-4.717 0-9.224-1.952-12.45-5.393l-10.94-11.674zm-202.171 17.066c0-9.426 7.641-17.067 17.067-17.067h30.438l21.879 23.339c6.461 6.876 15.473 10.782 24.909 10.795h84.48c9.436-.013 18.448-3.918 24.909-10.795l21.879-23.339h30.438c9.426 0 17.067 7.641 17.067 17.067v42.667h-273.066zm256 460.8h-238.934c-9.426 0-17.067-7.641-17.067-17.067v-13.278c5.166 3.071 11.057 4.709 17.067 4.745h238.933c6.01-.035 11.901-1.673 17.067-4.745v13.278c0 9.426-7.641 17.067-17.066 17.067zm17.066-59.733c0 9.426-7.641 17.067-17.067 17.067h-238.933c-9.426 0-17.067-7.641-17.067-17.067v-68.267h17.067v39.339c-.005 11.246 9.098 20.371 20.343 20.395 3.57-.005 7.076-.944 10.172-2.722l99.755-57.011h125.73zm51.2-324.267v221.867c0 9.426-7.641 17.067-17.067 17.067h-213.333c-4.713 0-8.533 3.82-8.533 8.533s3.82 8.533 8.533 8.533h19.063l-73.805 42.163c-1.046.645-2.367.645-3.413 0-1.007-.578-1.613-1.664-1.579-2.825v-39.339h25.6c4.713 0 8.533-3.82 8.533-8.533s-3.82-8.533-8.533-8.533h-93.866c-9.426 0-17.067-7.641-17.067-17.067v-221.866c0-9.426 7.641-17.067 17.067-17.067h341.333c9.426.001 17.067 7.642 17.067 17.067z"/><path id="Shape_269_" d="m153.6 187.733c-14.138 0-25.6 11.462-25.6 25.6v17.067c0 14.139 11.462 25.6 25.6 25.6s25.6-11.461 25.6-25.6v-17.067c0-14.138-11.462-25.6-25.6-25.6zm8.533 42.667c0 4.713-3.821 8.533-8.533 8.533s-8.533-3.821-8.533-8.533v-17.067c0-4.713 3.82-8.533 8.533-8.533s8.533 3.82 8.533 8.533z"/><path id="Shape_268_" d="m212.625 196.267c-4.197-24.619-25.518-42.635-50.492-42.667h-17.067c-28.265.028-51.172 22.935-51.2 51.2v34.133c.028 28.265 22.935 51.172 51.2 51.2h17.067c25.01.068 46.386-17.996 50.492-42.667h60.442v25.6c0 4.526 1.798 8.867 4.999 12.068s7.542 4.999 12.068 4.999h17.066c9.426 0 17.067-7.641 17.067-17.067v-8.533h17.067v8.533c0 9.426 7.641 17.067 17.067 17.067h17.067c9.426 0 17.067-7.641 17.067-17.067v-25.6h8.533c7.884-.039 15.312-3.702 20.143-9.933s6.529-14.337 4.604-21.982c-3.141-11.548-13.72-19.49-25.685-19.285h-187.505zm196.685 23.466c.638 2.55.072 5.252-1.535 7.332s-4.079 3.309-6.708 3.335h-8.533c-9.426 0-17.067 7.641-17.067 17.067v25.6h-17.067v-8.533c0-9.426-7.641-17.067-17.067-17.067h-17.067c-9.426 0-17.067 7.641-17.067 17.067v8.533h-17.067v-25.6c0-9.426-7.641-17.067-17.067-17.067h-68.265c-4.713 0-8.533 3.821-8.533 8.533.036 9.064-3.548 17.767-9.957 24.176s-15.112 9.994-24.176 9.957h-17.067c-18.851 0-34.133-15.282-34.133-34.133v-34.133c0-18.851 15.282-34.133 34.133-34.133h17.067c18.851 0 34.133 15.282 34.133 34.133 0 4.713 3.821 8.533 8.533 8.533h195.328c4.149-.164 7.901 2.451 9.182 6.4z"/></g></g></g></svg>