<svg width="21" height="21" viewBox="0 0 21 21" fill="none" xmlns="http://www.w3.org/2000/svg">
<path fill-rule="evenodd" clip-rule="evenodd" d="M0 10.5C0 4.70101 4.70101 0 10.5 0C16.2964 0.0061963 20.9938 4.70361 21 10.5C21 16.299 16.299 21 10.5 21C4.70101 21 0 16.299 0 10.5ZM1.49999 10.5C1.49999 15.4706 5.52943 19.5 10.5 19.5C15.4684 19.4947 19.4947 15.4684 19.5 10.5C19.5 5.52943 15.4706 1.49999 10.5 1.49999C5.52943 1.49999 1.49999 5.52943 1.49999 10.5Z" fill="black"/>
<circle cx="7.15887" cy="9.06805" r="1.43182" fill="black"/>
<circle cx="13.841" cy="9.06805" r="1.43182" fill="black"/>
<path d="M13.2223 12.6626C12.9875 12.3836 12.542 12.3262 12.2273 12.5344C12.2137 12.5434 12.2005 12.5528 12.1876 12.5627C11.1822 13.2138 9.81744 13.2138 8.81207 12.5627C8.51501 12.335 8.06604 12.364 7.80931 12.6274C7.55254 12.8908 7.58524 13.2889 7.88229 13.5165C7.89512 13.5264 7.90837 13.5358 7.92199 13.5448C9.44374 14.5761 11.5559 14.5761 13.0777 13.5448C13.3924 13.3366 13.4571 12.9416 13.2223 12.6626Z" fill="black"/>
</svg>
