<svg width="30" height="30" viewBox="0 0 30 30" fill="none" xmlns="http://www.w3.org/2000/svg">
<path d="M16.1191 12.3268L15.4978 11L14.8766 12.3259C14.782 12.5268 14.5998 12.6661 14.3891 12.6985L13 12.9111L14.006 13.9426C14.1584 14.0993 14.2277 14.3249 14.1915 14.546L13.9543 16L15.1967 15.3121C15.3857 15.2072 15.6117 15.2072 15.8007 15.3121L17.0431 16L16.8059 14.546C16.7697 14.3249 16.839 14.0993 16.9914 13.9426L18 12.9084L16.6109 12.6957C16.3993 12.6655 16.2154 12.5275 16.1191 12.3268Z" fill="#EA2D3F"/>
<path fill-rule="evenodd" clip-rule="evenodd" d="M9.2421 8H20.8204C21.1498 8 21.4658 8.12984 21.6987 8.36096C21.9316 8.59207 22.0625 8.90553 22.0625 9.23238V18.8014C22.0625 19.1282 21.9316 19.4417 21.6987 19.6728C21.4658 19.9039 21.1498 20.0337 20.8204 20.0337H16.9689C16.6974 20.034 16.4493 20.1862 16.3278 20.4272L15.0312 23L13.7347 20.4234C13.6132 20.1824 13.3651 20.0302 13.0936 20.03H9.2421C8.91268 20.03 8.59674 19.9001 8.3638 19.669C8.13086 19.4379 8 19.1244 8 18.7976V9.23238C8 8.55176 8.55611 8 9.2421 8ZM18.2508 14.5471L20.0233 12.8332C20.207 12.6553 20.273 12.3894 20.1936 12.1473C20.1142 11.9051 19.9032 11.7286 19.6492 11.692L17.2005 11.3351L16.1043 9.13312C15.9779 8.92129 15.7481 8.79137 15.5 8.79137C15.2519 8.79137 15.0221 8.92129 14.8957 9.13312L13.7995 11.3351L11.3508 11.692C11.0968 11.7286 10.8858 11.9051 10.8064 12.1473C10.727 12.3894 10.793 12.6553 10.9767 12.8332L12.7492 14.5471L12.331 16.9668C12.2875 17.2179 12.3914 17.4717 12.5991 17.6215C12.8068 17.7712 13.0821 17.7911 13.3094 17.6726L15.5 16.5305L17.6906 17.6726C17.9179 17.7911 18.1932 17.7712 18.4009 17.6215C18.6086 17.4717 18.7125 17.2179 18.669 16.9668L18.2508 14.5471Z" fill="#EA2D3F"/>
<path fill-rule="evenodd" clip-rule="evenodd" d="M0 15C0 6.71573 6.71573 0 15 0C23.2843 0 30 6.71573 30 15C30 23.2843 23.2843 30 15 30C6.71573 30 0 23.2843 0 15ZM20.9179 21.495C22.4483 21.4923 23.6883 20.256 23.691 18.7301L23.689 8.76484C23.6863 7.23899 22.4463 6.00272 20.9159 6H8.91414C7.38371 6.00272 6.14373 7.23899 6.141 8.76484V18.7301C6.14373 20.256 7.38371 21.4923 8.91414 21.495H12.4479L14.2504 25.0903C14.3762 25.3414 14.6335 25.5 14.915 25.5C15.1965 25.5 15.4538 25.3414 15.5796 25.0903L17.3821 21.495H20.9179Z" fill="#EA2D3F"/>
</svg>
