<?xml version="1.0" encoding="UTF-8"?>
<svg width="410px" height="476px" viewBox="0 0 410 476" version="1.1" xmlns="http://www.w3.org/2000/svg" xmlns:xlink="http://www.w3.org/1999/xlink">
    <title>uns</title>
    <g id="Page-1" stroke="none" stroke-width="1" fill="none" fill-rule="evenodd">
        <g id="uns" transform="translate(0.000000, 0.000000)" fill-rule="nonzero">
            <path d="M409.631698,204.75264 C409.626113,287.719663 359.592002,362.495917 282.901458,394.15168 L217.201618,469.43616 C214.089798,473.019102 209.577317,475.076765 204.831698,475.076765 C200.086079,475.076765 195.573598,473.019102 192.461778,469.43616 L126.761938,394.15168 C31.7160317,354.960988 -19.5443168,251.378184 6.94808388,152.041447 C33.4404846,52.704709 129.474127,-11.5958358 231.413215,1.74796757 C333.352303,15.091771 409.600092,101.943916 409.631698,204.75264 Z" id="Path" fill="#FFFFFF"></path>
            <path d="M313.162706,327.6736 C248.479947,384.602516 150.735727,381.629896 89.6319801,320.87553 C28.5282334,260.121164 24.9951791,162.395596 81.5522573,97.3874598 C138.109336,32.3793239 235.383725,22.3562315 304.008528,74.4657043 C372.633332,126.575177 389.102101,222.967857 341.670866,294.9056 L313.162706,327.6736 Z" id="Path" fill="#E93300"></path>
        </g>
    </g>
</svg>