<?xml version="1.0" encoding="UTF-8"?>
<svg width="264px" height="176px" viewBox="0 0 264 176" version="1.1" xmlns="http://www.w3.org/2000/svg" xmlns:xlink="http://www.w3.org/1999/xlink">
    <title>Group 3</title>
    <g id="Page-1" stroke="none" stroke-width="1" fill="none" fill-rule="evenodd">
        <g id="Group-3">
            <g id="Group">
                <circle id="Oval" stroke="#FFFFFF" stroke-width="7" fill="#2196F3" cx="88" cy="88" r="84.5"></circle>
                <g id="icons8-done-500" transform="translate(37.000000, 42.000000)" fill="#FFFFFF" fill-rule="nonzero">
                    <path d="M95.4444885,0.00574543998 C93.6869821,0.0678400341 92.0742104,0.999237751 91.1437639,2.48947622 L41.3546064,78.7400111 L9.09917214,50.8394353 C7.71384391,49.4009406 5.63584761,48.8627989 3.72326643,49.4630352 C1.82102287,50.0529206 0.404679143,51.6673456 0.0738541758,53.6336338 C-0.256970791,55.6102675 0.539076124,57.5972522 2.15184784,58.7873738 L39.0388316,90.7447098 C40.196719,91.7278539 41.7267845,92.1625055 43.2258345,91.9451797 C44.7352247,91.7175057 46.0688622,90.8585481 46.8959246,89.5856355 L100.076038,8.28484803 C101.21325,6.6186793 101.306294,4.46611262 100.324157,2.706802 C99.3420194,0.957842238 97.4501161,-0.0873938018 95.4444885,0.00574543998 Z" id="Path"></path>
                </g>
            </g>
            <g id="Group-2" transform="translate(88.000000, 0.000000)">
                <circle id="Oval-Copy" stroke="#FFFFFF" stroke-width="7" fill="#2196F3" cx="88" cy="88" r="84.5"></circle>
                <g id="icons8-done-500-copy" transform="translate(37.000000, 42.000000)" fill="#FFFFFF" fill-rule="nonzero">
                    <path d="M95.4444885,0.00574543998 C93.6869821,0.0678400341 92.0742104,0.999237751 91.1437639,2.48947622 L41.3546064,78.7400111 L9.09917214,50.8394353 C7.71384391,49.4009406 5.63584761,48.8627989 3.72326643,49.4630352 C1.82102287,50.0529206 0.404679143,51.6673456 0.0738541758,53.6336338 C-0.256970791,55.6102675 0.539076124,57.5972522 2.15184784,58.7873738 L39.0388316,90.7447098 C40.196719,91.7278539 41.7267845,92.1625055 43.2258345,91.9451797 C44.7352247,91.7175057 46.0688622,90.8585481 46.8959246,89.5856355 L100.076038,8.28484803 C101.21325,6.6186793 101.306294,4.46611262 100.324157,2.706802 C99.3420194,0.957842238 97.4501161,-0.0873938018 95.4444885,0.00574543998 Z" id="Path"></path>
                </g>
            </g>
        </g>
    </g>
</svg>