<svg width="100" height="100" viewBox="0 0 100 100" fill="none" xmlns="http://www.w3.org/2000/svg">
<circle cx="50" cy="50" r="50" fill="#3CA58A"/>
<path fill-rule="evenodd" clip-rule="evenodd" d="M40.5468 35H59.4532C62.5154 35.003 64.997 37.4846 65 40.5468V59.4532C64.9913 62.3556 62.7429 64.7588 59.8475 64.9604C59.7807 64.9798 59.7121 64.9931 59.6429 65C59.6212 64.9969 59.5998 64.9926 59.5786 64.9871C59.5581 64.9877 59.5384 64.9906 59.5187 64.9936C59.4972 64.9968 59.4756 65 59.4532 65H40.5468C37.4846 64.997 35.003 62.5154 35 59.4532V40.5468C35.003 37.4846 37.4846 35.003 40.5468 35ZM59.4532 37.1429H40.5468C38.6676 37.1446 37.1446 38.6676 37.1429 40.5468V49.5564L41.2068 45.4925C41.6252 45.0742 42.3034 45.0742 42.7218 45.4925L52.0357 54.8064L56.5282 50.3139C56.9466 49.8957 57.6248 49.8957 58.0432 50.3139L62.8571 55.1279V40.5468C62.8554 38.6676 61.3324 37.1446 59.4532 37.1429ZM37.1429 59.4532V52.5864L41.9643 47.765L57.0564 62.8571H40.5468C38.6676 62.8554 37.1446 61.3324 37.1429 59.4532ZM53.5507 56.3214L60.0286 62.7993C61.6593 62.5196 62.8528 61.1078 62.8571 59.4532V58.1579L57.2857 52.5864L53.5507 56.3214Z" fill="white"/>
<path fill-rule="evenodd" clip-rule="evenodd" d="M62.862 45.7586C62.862 47.7583 61.2409 49.3793 59.2413 49.3793C58.281 49.3793 57.3601 48.9979 56.6811 48.3188C56.0021 47.6398 55.6206 46.7189 55.6206 45.7586C55.6206 43.759 57.2416 42.1379 59.2413 42.1379C61.2409 42.1379 62.862 43.759 62.862 45.7586ZM60.793 45.7586C60.793 44.9016 60.0983 44.2069 59.2413 44.2069C58.3843 44.2069 57.6896 44.9016 57.6896 45.7586C57.6896 46.6156 58.3843 47.3104 59.2413 47.3104C60.0983 47.3104 60.793 46.6156 60.793 45.7586Z" fill="white"/>
</svg>
