<svg width="16" height="21" viewBox="0 0 16 21" fill="none" xmlns="http://www.w3.org/2000/svg">
<path fill-rule="evenodd" clip-rule="evenodd" d="M2 21H14C15.1022 21 16 20.1171 16 19.0312V9.84375C16 8.75787 15.1022 7.875 14 7.875H2C0.897778 7.875 0 8.75787 0 9.84375V19.0312C0 20.1171 0.897778 21 2 21ZM1.33333 9.84375C1.33333 9.4815 1.63289 9.1875 2 9.1875H14C14.3671 9.1875 14.6667 9.4815 14.6667 9.84375V19.0312C14.6667 19.3935 14.3671 19.6875 14 19.6875H2C1.63289 19.6875 1.33333 19.3935 1.33333 19.0312V9.84375Z" fill="black"/>
<path d="M12.6665 8.75C12.2985 8.75 11.9998 8.47 11.9998 8.125V5C11.9998 2.9325 10.2052 1.25 7.99984 1.25C5.7945 1.25 3.99984 2.9325 3.99984 5V8.125C3.99984 8.47 3.70117 8.75 3.33317 8.75C2.96517 8.75 2.6665 8.47 2.6665 8.125V5C2.6665 2.2425 5.0585 0 7.99984 0C10.9412 0 13.3332 2.2425 13.3332 5V8.125C13.3332 8.47 13.0345 8.75 12.6665 8.75Z" fill="black"/>
<path fill-rule="evenodd" clip-rule="evenodd" d="M6.22217 13.125C6.22217 14.0901 7.0195 14.875 7.99995 14.875C8.98039 14.875 9.77772 14.0901 9.77772 13.125C9.77772 12.1599 8.98039 11.375 7.99995 11.375C7.0195 11.375 6.22217 12.1599 6.22217 13.125ZM7.5555 13.125C7.5555 12.8835 7.7555 12.6875 7.99995 12.6875C8.24439 12.6875 8.44439 12.8835 8.44439 13.125C8.44439 13.3665 8.24439 13.5625 7.99995 13.5625C7.7555 13.5625 7.5555 13.3665 7.5555 13.125Z" fill="black"/>
<path d="M7.94444 17.5C7.69911 17.5 7.5 17.2233 7.5 16.8824V14.6176C7.5 14.2767 7.69911 14 7.94444 14C8.18978 14 8.38889 14.2767 8.38889 14.6176V16.8824C8.38889 17.2233 8.18978 17.5 7.94444 17.5Z" fill="black"/>
</svg>
