<svg width="40" height="40" viewBox="0 0 40 40" fill="none" xmlns="http://www.w3.org/2000/svg">
<circle cx="20" cy="20" r="20" fill="#3A9EEE"/>
<path fill-rule="evenodd" clip-rule="evenodd" d="M23.2141 15.1786C23.2141 17.4863 21.3433 19.3571 19.0355 19.3571C16.7288 19.3545 14.8596 17.4852 14.8569 15.1786C14.8569 12.8708 16.7277 11 19.0355 11C21.3433 11 23.2141 12.8708 23.2141 15.1786ZM22.0202 15.1786C22.0202 13.5302 20.6839 12.1939 19.0355 12.1939C17.3879 12.1959 16.0528 13.531 16.0508 15.1786C16.0508 16.827 17.3871 18.1633 19.0355 18.1633C20.6839 18.1633 22.0202 16.827 22.0202 15.1786Z" fill="white"/>
<path fill-rule="evenodd" clip-rule="evenodd" d="M11 28.4031C11.0049 24.1193 14.4558 20.6478 18.7143 20.6429C22.9727 20.6478 26.4237 24.1193 26.4286 28.4031C26.4286 28.7328 26.1629 29 25.8352 29H11.5934C11.436 29 11.2851 28.9371 11.1738 28.8252C11.0625 28.7132 11 28.5614 11 28.4031ZM18.7143 21.8332C15.3378 21.8332 12.5186 24.4235 12.2135 27.8061H25.2151C24.91 24.4235 22.0908 21.8332 18.7143 21.8332Z" fill="white"/>
<path d="M28.4215 19.1H26.6858V17.3643C26.6858 17.0447 26.4267 16.7857 26.1072 16.7857C25.7877 16.7857 25.5286 17.0447 25.5286 17.3643V19.1H23.7929C23.4734 19.1 23.2144 19.359 23.2144 19.6786C23.2144 19.9981 23.4734 20.2571 23.7929 20.2571H25.5286V21.9928C25.5286 22.3124 25.7877 22.5714 26.1072 22.5714C26.4267 22.5714 26.6858 22.3124 26.6858 21.9928V20.2571H28.4215C28.741 20.2571 29.0001 19.9981 29.0001 19.6786C29.0001 19.359 28.741 19.1 28.4215 19.1Z" fill="white"/>
</svg>
