<svg width="40" height="40" viewBox="0 0 40 40" fill="none" xmlns="http://www.w3.org/2000/svg">
<circle cx="20" cy="20" r="20" fill="#3CA58A"/>
<path fill-rule="evenodd" clip-rule="evenodd" d="M15.21 15.8271C15.21 13.3492 17.2259 11.3333 19.7038 11.3333C22.1817 11.3333 24.1976 13.3492 24.1976 15.8271C24.1976 18.305 22.1817 20.321 19.7038 20.321C17.2259 20.321 15.21 18.305 15.21 15.8271ZM16.2086 15.8271C16.2086 17.7544 17.7765 19.3223 19.7038 19.3223C21.631 19.3223 23.199 17.7544 23.199 15.8271C23.199 13.8999 21.631 12.3319 19.7038 12.3319C17.7765 12.3319 16.2086 13.8999 16.2086 15.8271Z" fill="white"/>
<path fill-rule="evenodd" clip-rule="evenodd" d="M20.7309 21.6049C22.5116 21.6049 24.1892 22.2933 25.4546 23.5434C26.7139 24.7873 27.4074 26.4293 27.4074 28.167C27.4074 28.4429 27.1775 28.6666 26.8938 28.6666H12.5136C12.2299 28.6666 12 28.4429 12 28.167C12 26.4293 12.6935 24.7873 13.9528 23.5434C15.2182 22.2933 16.8959 21.6049 18.6765 21.6049H20.7309ZM18.6765 22.6042C15.7324 22.6042 13.3071 24.8331 13.0498 27.6673H26.3576C26.1003 24.8331 23.675 22.6042 20.7309 22.6042H18.6765Z" fill="white"/>
</svg>
