<?xml version="1.0" encoding="UTF-8"?>
<svg width="432px" height="501px" viewBox="0 0 432 501" version="1.1" xmlns="http://www.w3.org/2000/svg" xmlns:xlink="http://www.w3.org/1999/xlink">
    <title>ese</title>
    <defs>
        <path d="M426.699686,213.284 C426.693868,299.707982 374.575002,377.599913 294.689019,410.574667 L226.251686,488.996 C223.010207,492.728232 218.309706,494.87163 213.366352,494.87163 C208.422999,494.87163 203.722498,492.728232 200.481019,488.996 L132.043686,410.574667 C33.037533,369.751029 -20.3586634,261.852275 7.23758739,158.376507 C34.8338381,54.9007385 134.868882,-12.0789957 241.055432,1.82079956 C347.241982,15.7205948 426.666763,106.191579 426.699686,213.284 Z" id="path-1"></path>
        <filter x="-1.1%" y="-0.5%" width="102.1%" height="102.0%" filterUnits="objectBoundingBox" id="filter-2">
            <feOffset dx="0" dy="3" in="SourceAlpha" result="shadowOffsetOuter1"></feOffset>
            <feGaussianBlur stdDeviation="1" in="shadowOffsetOuter1" result="shadowBlurOuter1"></feGaussianBlur>
            <feColorMatrix values="0 0 0 0 0.688037817   0 0 0 0 0.688037817   0 0 0 0 0.688037817  0 0 0 0.5 0" type="matrix" in="shadowBlurOuter1"></feColorMatrix>
        </filter>
    </defs>
    <g id="Page-1" stroke="none" stroke-width="1" fill="none" fill-rule="evenodd">
        <g id="ese" transform="translate(2.633648, 0.582667)" fill-rule="nonzero">
            <g id="Colour">
                <g id="Path">
                    <use fill="black" fill-opacity="1" filter="url(#filter-2)" xlink:href="#path-1"></use>
                    <use fill="#FF3800" xlink:href="#path-1"></use>
                </g>
                <circle id="Oval" fill="#F9F9F9" cx="213.366352" cy="213.284" r="170.666667"></circle>
            </g>
            <g id="Outlines" transform="translate(110.962375, 85.284000)">
                <path d="M196.270644,85.3333333 L196.270644,213.333333 C196.242528,222.747323 188.617966,230.371884 179.203977,230.4 L25.6039772,230.4 C16.1899879,230.371884 8.56542613,222.747323 8.53731049,213.333333 L8.53731049,85.3333333 L196.270644,85.3333333 Z" id="Path" fill="#C0DADC"></path>
                <path d="M197.550644,55.3813333 L162.13731,34.1333333 L162.13731,17.0666667 C162.109195,7.65267741 154.484633,0.0281156362 145.070644,-1.42108547e-14 L59.7373105,-1.42108547e-14 C50.3233212,0.0281156362 42.6987595,7.65267741 42.6706438,17.0666667 L42.6706438,34.1333333 L7.25731049,55.3813333 C2.74366391,58.1038458 -0.00993295498,62.9955296 0.00397716036,68.2666667 L0.00397716036,83.968 C-0.235198651,97.919467 10.3408803,109.687217 24.2386438,110.933333 C31.2615002,111.308427 38.1293763,108.777807 43.229812,103.935622 C48.3302476,99.0934358 51.213987,92.3661924 51.2039772,85.3333333 C51.2039772,99.4718229 62.6654876,110.933333 76.8039772,110.933333 C90.9424668,110.933333 102.403977,99.4718229 102.403977,85.3333333 C102.403977,99.4718229 113.865488,110.933333 128.003977,110.933333 C142.142467,110.933333 153.603977,99.4718229 153.603977,85.3333333 C153.593967,92.3661924 156.477707,99.0934358 161.578142,103.935622 C166.678578,108.777807 173.546454,111.308427 180.56931,110.933333 C194.467074,109.687217 205.043153,97.919467 204.803977,83.968 L204.803977,68.2666667 C204.817887,62.9955296 202.06429,58.1038458 197.550644,55.3813333 L197.550644,55.3813333 Z" id="Path" fill="#C74C5E"></path>
                <path d="M204.803977,68.2666667 L204.803977,83.968 C205.043153,97.919467 194.467074,109.687217 180.56931,110.933333 C173.546454,111.308427 166.678578,108.777807 161.578142,103.935622 C156.477707,99.0934358 153.593967,92.3661924 153.603951,85.3333333 L153.603951,68.2666667 L204.803977,68.2666667 Z" id="Path" fill="#EB6374"></path>
                <path d="M102.403977,68.2666667 L102.403977,85.3333333 C102.403977,99.4718229 90.9424668,110.933333 76.8039772,110.933333 C62.6654876,110.933333 51.2039772,99.4718229 51.2039772,85.3333333 L51.2039772,68.2666667 L102.403977,68.2666667 Z" id="Path" fill="#EB6374"></path>
                <path d="M204.80403,68.2666667 L0.00392470782,68.2666667 C-0.00993295498,62.9955296 2.74366391,58.1038458 7.25731049,55.3813333 L42.6706438,34.1333333 L162.13731,34.1333333 L197.550644,55.3813333 C202.06429,58.1038458 204.817887,62.9955296 204.80403,68.2666667 L204.80403,68.2666667 Z" id="Path" fill="#A03C4F"></path>
                <rect id="Rectangle" fill="#3A728B" x="119.470644" y="145.066667" width="42.6666667" height="42.6666667" rx="8.53333333"></rect>
                <path d="M42.6706438,230.4 L42.6706438,153.6 C42.6706438,148.88717 46.4911473,145.066667 51.2039772,145.066667 L76.8039772,145.066667 C81.516807,145.066667 85.3373105,148.88717 85.3373105,153.6 L85.3373105,230.4 L42.6706438,230.4 Z" id="Path" fill="#6E9099"></path>
            </g>
        </g>
    </g>
</svg>