<?xml version="1.0" encoding="UTF-8"?>
<svg width="432px" height="501px" viewBox="0 0 432 501" version="1.1" xmlns="http://www.w3.org/2000/svg" xmlns:xlink="http://www.w3.org/1999/xlink">
    <title>un</title>
    <defs>
        <path d="M426.699686,213.284 C426.693868,299.707982 374.575002,377.599913 294.689019,410.574667 L226.251686,488.996 C223.010207,492.728232 218.309706,494.87163 213.366352,494.87163 C208.422999,494.87163 203.722498,492.728232 200.481019,488.996 L132.043686,410.574667 C33.037533,369.751029 -20.3586634,261.852275 7.23758739,158.376507 C34.8338381,54.9007385 134.868882,-12.0789957 241.055432,1.82079956 C347.241982,15.7205948 426.666763,106.191579 426.699686,213.284 Z" id="path-1"></path>
        <filter x="-1.1%" y="-0.5%" width="102.1%" height="102.0%" filterUnits="objectBoundingBox" id="filter-2">
            <feOffset dx="0" dy="3" in="SourceAlpha" result="shadowOffsetOuter1"></feOffset>
            <feGaussianBlur stdDeviation="1" in="shadowOffsetOuter1" result="shadowBlurOuter1"></feGaussianBlur>
            <feColorMatrix values="0 0 0 0 0.68627451   0 0 0 0 0.68627451   0 0 0 0 0.68627451  0 0 0 0.5 0" type="matrix" in="shadowBlurOuter1"></feColorMatrix>
        </filter>
    </defs>
    <g id="Page-1" stroke="none" stroke-width="1" fill="none" fill-rule="evenodd">
        <g id="un" transform="translate(2.633648, 0.582667)" fill-rule="nonzero">
            <g id="Colour">
                <g id="Path">
                    <use fill="black" fill-opacity="1" filter="url(#filter-2)" xlink:href="#path-1"></use>
                    <use fill="#FFFFFF" xlink:href="#path-1"></use>
                </g>
                <circle id="Oval" fill="#008AFF" cx="213.366352" cy="213.284" r="170.666667"></circle>
            </g>
            <g id="Outlines" transform="translate(93.907389, 85.324682)" fill="#FFFFFF">
                <path d="M134.09363,9.12411784 L162.168297,66.3827845 L224.930963,75.5646512 C231.098706,76.5024102 236.20629,80.8463387 238.122094,86.7835214 C240.037897,92.7207041 238.432651,99.2307209 233.976297,103.596651 L188.578963,148.174785 L199.29683,211.108118 C200.384133,217.245803 197.885088,223.467469 192.854244,227.147689 C187.8234,230.82791 181.137098,231.325616 175.61683,228.430785 L119.458963,198.717718 L63.3181634,228.430785 C57.797895,231.325616 51.1115931,230.82791 46.0807495,227.147689 C41.0499059,223.467469 38.5508607,217.245803 39.6381634,211.108118 L50.3389634,148.174785 L4.94163007,103.596651 C0.485275842,99.2307209 -1.11997004,92.7207041 0.795833204,86.7835214 C2.71163644,80.8463387 7.81922084,76.5024102 13.9869634,75.5646512 L76.7922967,66.3827845 L104.866963,9.12411784 C107.595086,3.54083504 113.266144,0 119.480297,0 C125.69445,0 131.365508,3.54083504 134.09363,9.12411784 L134.09363,9.12411784 Z" id="Path"></path>
            </g>
        </g>
    </g>
</svg>